<svg xmlns="http://www.w3.org/2000/svg" viewBox="0 0 1080 1080"><defs><style>.cls-1,.cls-33{fill:#b1b4f8;}.cls-1,.cls-10,.cls-11,.cls-12,.cls-13,.cls-14,.cls-15,.cls-16,.cls-17,.cls-19,.cls-2,.cls-21,.cls-22,.cls-23,.cls-26,.cls-27,.cls-28,.cls-29,.cls-3,.cls-30,.cls-31,.cls-32,.cls-33,.cls-34,.cls-35,.cls-36,.cls-37,.cls-38,.cls-39,.cls-40,.cls-41,.cls-42,.cls-43,.cls-44,.cls-45,.cls-46,.cls-47,.cls-48,.cls-49,.cls-51,.cls-52,.cls-53,.cls-54,.cls-55,.cls-56,.cls-57,.cls-58,.cls-59,.cls-6,.cls-61,.cls-7,.cls-8,.cls-9{stroke:#FBD3CB;}.cls-1,.cls-10,.cls-11,.cls-12,.cls-13,.cls-14,.cls-15,.cls-16,.cls-17,.cls-19,.cls-2,.cls-21,.cls-22,.cls-23,.cls-26,.cls-27,.cls-28,.cls-29,.cls-3,.cls-30,.cls-31,.cls-32,.cls-33,.cls-34,.cls-35,.cls-36,.cls-37,.cls-38,.cls-39,.cls-40,.cls-41,.cls-42,.cls-43,.cls-44,.cls-45,.cls-46,.cls-47,.cls-48,.cls-49,.cls-51,.cls-52,.cls-53,.cls-54,.cls-55,.cls-56,.cls-57,.cls-58,.cls-59,.cls-6,.cls-60,.cls-61,.cls-7,.cls-8,.cls-9{stroke-linecap:round;stroke-linejoin:round;}.cls-1,.cls-17,.cls-2,.cls-3,.cls-37{stroke-width:2.08px;}.cls-1,.cls-11,.cls-12,.cls-15,.cls-16,.cls-17,.cls-18,.cls-19,.cls-2,.cls-20,.cls-21,.cls-22,.cls-23,.cls-24,.cls-25,.cls-26,.cls-27,.cls-28,.cls-29,.cls-3,.cls-30,.cls-31,.cls-32,.cls-33,.cls-34,.cls-35,.cls-36,.cls-37,.cls-38,.cls-39,.cls-4,.cls-42,.cls-43,.cls-46,.cls-47,.cls-48,.cls-49,.cls-5,.cls-57,.cls-58,.cls-59,.cls-6,.cls-61,.cls-7,.cls-8{fill-rule:evenodd;}.cls-2{fill:#EC8E7B;}.cls-12,.cls-3,.cls-39,.cls-43{fill:#FDBDAF;}.cls-4{fill:#FFCDC2;}.cls-5{fill:#F5A898;}.cls-21,.cls-22,.cls-28,.cls-29,.cls-6,.cls-7{fill:#FEEBE7;}.cls-16,.cls-6{stroke-width:1.69px;}.cls-7,.cls-8{stroke-width:2.09px;}.cls-16,.cls-27,.cls-38,.cls-47,.cls-48,.cls-49,.cls-8{fill:#FFF8F7;}.cls-13,.cls-40,.cls-44,.cls-9{fill:#F5A898;}.cls-9{stroke-width:2.45px;}.cls-10,.cls-14,.cls-26,.cls-41,.cls-45,.cls-50,.cls-51,.cls-52{fill:#FBD3CB;}.cls-10,.cls-11{stroke-width:2.51px;}.cls-11,.cls-15,.cls-42,.cls-46{fill:#EC8E7B;}.cls-12{stroke-width:2.46px;}.cls-13{stroke-width:2.41px;}.cls-14,.cls-15{stroke-width:2.51px;}.cls-17,.cls-34{fill:#E54D2E;}.cls-18{fill:#565def;}.cls-19{fill:#f6f6f6;}.cls-19,.cls-23{stroke-width:2.08px;}.cls-20{fill:#dedede;}.cls-21,.cls-38{stroke-width:1.99px;}.cls-22,.cls-47{stroke-width:2px;}.cls-23,.cls-35{fill:#fff;}.cls-24{fill:#efeffd;}.cls-25{fill:#c5c5c5;}.cls-26{stroke-width:2.08px;}.cls-27{stroke-width:1.9px;}.cls-28{stroke-width:1.91px;}.cls-29{stroke-width:1.82px;}.cls-30{fill:#FDBDAF;}.cls-30,.cls-31,.cls-32{stroke-width:2.1px;}.cls-31,.cls-36,.cls-37{fill:#F5A898;}.cls-32,.cls-57{fill:#EC8E7B;}.cls-33,.cls-34,.cls-35,.cls-36{stroke-width:2.08px;}.cls-39{stroke-width:2.08px;}.cls-40{stroke-width:2.32px;}.cls-41,.cls-42{stroke-width:2.4px;}.cls-43{stroke-width:2.54px;}.cls-44{stroke-width:2.48px;}.cls-45,.cls-46{stroke-width:2.61px;}.cls-48{stroke-width:1.91px;}.cls-49{stroke-width:1.81px;}.cls-51{stroke-width:2.68px;}.cls-52{stroke-width:2.09px;}.cls-53,.cls-54,.cls-55,.cls-56,.cls-60{fill:none;}.cls-53,.cls-57,.cls-58,.cls-59,.cls-61{stroke-width:2.08px;}.cls-54{stroke-width:2.23px;}.cls-55{stroke-width:2.24px;}.cls-56{stroke-width:2.34px;}.cls-58{fill:#abd9d3;}.cls-59{fill:#FFDCD3;}.cls-60{stroke:#EC8E7B;stroke-width:8.33px;}.cls-61{fill:#E54D2E;}</style></defs><g id="Progress_Checking" data-name="Progress Checking"><path class="cls-1" d="M202.06,396.85,518,239.58l17.41,3L642.21,715.77l-303,167.85-16.44-4.25Z"/><path class="cls-2" d="M202.06,396.85l16.43,4.25L339.23,883.62l-16.44-4.25Z"/><path class="cls-3" d="M253.81,887.88l40.91-20.46.22-.11c11.3-5.76,15.91-8.9,20.53-17.08l-39.35-162H229.3l-18.1,22.95s-21.82,10.87-26.86,35C181.26,761,220.09,884,220.09,884Z"/><path class="cls-4" d="M242,688.93l-15.1,25.66C207.1,729.5,199.71,743,193.53,756.31L185,748a10.1,10.1,0,0,1,.15-1.27c5-24.14,26.68-34.83,26.68-34.83l17.84-22.49Z"/><path class="cls-5" d="M271.9,675.24l42.53,174.83a32.44,32.44,0,0,1-13.94,13.07C299.1,839,280.83,732,267.41,707.25,263.71,700.41,269.12,685.05,271.9,675.24Z"/><path class="cls-6" d="M226.55,590.69a16.9,16.9,0,0,0-4.28,15.91c2,8.08,4.95,19.63,6.7,26.58a8.5,8.5,0,0,0,7.65,6.4l15.32,1.09,1.16-58-15.23-.45a6.86,6.86,0,0,0-5.13,2.07Z"/><path class="cls-7" d="M227.29,659.11a14,14,0,0,1,14.35-14.87l18.08.14,6,38.36-19.8,10-16.6-3.15S228.19,672.44,227.29,659.11Z"/><path class="cls-8" d="M243.14,660.37a15.52,15.52,0,0,1,14.08-16h.13a15.52,15.52,0,0,1,16.93,14.4c.6,8.81,1.33,19.63,1.9,28a12.78,12.78,0,0,1-12.27,13.64l-6.61.25A12.79,12.79,0,0,1,244,688.29C243.77,680,243.42,669.05,243.14,660.37Z"/><path class="cls-9" d="M226.22,887c-27.56-13.78-49.9-59.73-49.9-102.65s22.34-66.53,49.9-52.75,49.9,59.74,49.9,102.65S253.78,900.81,226.22,887Z"/><path class="cls-10" d="M224.9,867.4c-18.52-9.25-33.53-41.44-33.53-71.89s15-47.64,33.53-38.38,33.52,41.45,33.52,71.9S243.41,876.66,224.9,867.4Z"/><path class="cls-11" d="M248.87,862.78c5.9-7,9.55-18.76,9.55-33.75,0-30.43-15-62.65-33.52-71.9a21.89,21.89,0,0,0-9.72-2.5c-5.91,7-9.55,18.76-9.55,33.75,0,30.43,15,62.65,33.52,71.9A21.73,21.73,0,0,0,248.87,862.78Z"/><path class="cls-12" d="M217.79,903.28c13-7.5,21.33-28.55,21.33-55.21,0-42.89-20.3-83.64-53.86-100.41-15.26-7.64-31-1.43-31-1.43l-23.35,11.1,10.71,13.08a94.62,94.62,0,0,0-4.34,29.73c0,38.78,18.07,80,41.65,97.6l7.58,18.92Z"/><path class="cls-5" d="M186.52,904.48l2.11,9.94,28.55-12.72c6-4.31,13.17-14.38,16.15-25.32l-43.94,22Z"/><path class="cls-4" d="M186.52,750c-8.21-6.91-28.57-5.86-33-2.31l-17.6,7.95L143,769.89c-.22.73-.43,1.47-.64,2.22Z"/><path class="cls-13" d="M160.61,913.94c-29-14.49-52.46-61-52.46-103.94s23.49-66,52.46-51.47,52.46,61,52.46,103.93S189.59,928.42,160.61,913.94Z"/><path class="cls-14" d="M161.32,889.66c-18.53-9.27-34-40.75-34.48-70.31s14.09-46,32.62-36.76,34,40.74,34.48,70.31S179.85,898.92,161.32,889.66Z"/><path class="cls-15" d="M149.2,780a22.14,22.14,0,0,1,10.26,2.58c18.52,9.26,34,40.76,34.48,70.31.26,14.52-3.15,25.89-8.87,32.59a22.14,22.14,0,0,1-10.26-2.58c-18.52-9.25-34-40.76-34.48-70.31C140.07,798.08,143.48,786.71,149.2,780Z"/><path class="cls-16" d="M241.79,591.67a16.9,16.9,0,0,0-4.22,16.11c2,7.43,4.76,18,7,26.56a8.5,8.5,0,0,0,14.31,3.76l5.28-5.43A15.3,15.3,0,0,0,268,618.06c-2.19-8.26-5.55-21-8-30.22a6.86,6.86,0,0,0-11.55-3Z"/><path class="cls-17" d="M218.49,401.1,535.43,242.63,656.17,725.15,339.23,883.62Z"/><path class="cls-18" d="M370.93,819.1l12.22,20.71,67.9-34.2L410,778.51Z"/><path class="cls-18" d="M647.13,692.9l8,31.72-11.34,5.62-12.22-20.71Z"/><path class="cls-19" d="M242.31,412,521.74,272.27,628.92,700.58,349.48,840.29Z"/><path class="cls-20" d="M611,623,630,699,374.5,826.71C353.7,793.24,336,756.62,320.34,717.9l-71.82-287,266.06-133C545.25,436.85,571.78,543.06,611,623Z"/><path class="cls-19" d="M242.31,412,521.74,272.27C566.15,473.58,601.9,606.12,680,689.75L400.59,829.47C320.37,717.93,282.33,562.8,242.31,412Z"/><path class="cls-20" d="M256,465.49c37.89,154.24,103.15,253.18,177.78,333.16L719.12,656l-20.28-38.57-135.37-25Z"/><path class="cls-21" d="M685,664.34A10.35,10.35,0,0,1,690.31,676c-.67,2.85-1.42,6-2,8.48a10.64,10.64,0,0,1-5.59,7l-13.77,6.89L652.23,678.8l30.88-15.44Z"/><path class="cls-22" d="M736.19,644.63a8.81,8.81,0,0,1,11.44,4.46c2.14,4.65,4.85,10.57,7,15.3a8.83,8.83,0,0,1-4.53,11.78l-31.28,13.49a8.86,8.86,0,0,1-9.47-1.61l-19.63-18,20.48-14.22a9,9,0,0,1,1.61-.89Z"/><path class="cls-23" d="M242.31,412,521.74,272.27C566.16,473.58,646,558.85,724.15,642.49L444.72,782.2C358.43,698.27,273,561.21,242.31,412Z"/><path class="cls-24" d="M246.82,427.94q-1.78-7.68-3.38-15.4l276-138q1.71,7.78,3.5,15.34Z"/><path class="cls-25" d="M605.47,629.52s14.92,10.31,28.52,4.74,44.14-16.75,44.14-16.75l7.59,17A10,10,0,0,0,697.78,640l6.81-2.06c1.49,3.39,2,7,2,12.4l47.87-23-44-55.94L619,598.92l-14,17.13Z"/><path class="cls-26" d="M480.71,679.31,609.1,615l11.63,16.24L493.36,694.44Z"/><path class="cls-27" d="M684.39,605.51a13.45,13.45,0,0,1,7-17.37l9.67-4.28A13.46,13.46,0,0,1,719,591.1c1.81,4.46,3.83,9.44,5.62,13.83a13.45,13.45,0,0,1-7,17.37l-9.67,4.28A13.45,13.45,0,0,1,690,619.34Z"/><path class="cls-28" d="M658.09,572.1a13.45,13.45,0,0,1,17.46,6.79l4.26,9.29a13.46,13.46,0,0,1-7,18L659.05,612a13.45,13.45,0,0,1-17.46-6.8l-4.26-9.29a13.47,13.47,0,0,1,7-18Z"/><path class="cls-29" d="M619.09,589.56a13.47,13.47,0,0,1,17.58,7l3.06,7a13.46,13.46,0,0,1-6.63,17.55l-9.91,4.65a13.46,13.46,0,0,1-18-6.7l-3.3-7.41a13.44,13.44,0,0,1,7.06-17.88Z"/><path class="cls-30" d="M309.65,402.3,298.3,357.44l-13.76-1.83-4.89-22.34,141.56-71.19,24.51,3.57,17.7,69L318.91,406.93Z"/><path class="cls-31" d="M308.14,403.48,297.1,358l-12.56-2.43-4.89-22.34,21.57,4.63,17.69,69Z"/><path class="cls-32" d="M318.91,406.93l-17.69-69,144.5-72.25,17.7,69Z"/><path class="cls-33" d="M329.86,386.12,319.21,344l115.71-57.87,10.66,42.12Z"/><path class="cls-34" d="M329.86,386.12,320.72,350l115.72-57.86,9.14,36.12Z"/><path class="cls-34" d="M387.27,448.25,384.42,437l115.71-57.86L503,390.39Z"/><path class="cls-34" d="M398,472.19l-5.77-10.82,59.4-29.7,5.77,10.82Z"/><path class="cls-35" d="M329.86,386.12l-4-15.89,115.72-57.86,4,15.89Z"/><path class="cls-36" d="M428.58,289.32l6.34-3.17,10.66,42.11L437.74,325Z"/><path class="cls-37" d="M437.75,325l-109.4,54.7,1.51,6.46,115.72-57.86Z"/><path class="cls-38" d="M673,670.46a10.37,10.37,0,0,1,5.35,11.47c-.64,2.84-1.38,6.16-2.1,9.42A10.64,10.64,0,0,1,660,697.92l-19.93-13L671,669.43Z"/><path class="cls-39" d="M689.68,598.09s-21.34-21.81-6-35.63,41.39-23.28,58.58-31.47c6.34-3,19.47-9.62,35.18-6.44,5.91,1.19,25.59,12.88,34.5,18.31a24.42,24.42,0,0,1,7.39,7c4.68,6.78,13.88,20.08,19.24,27.83a30.89,30.89,0,0,0,10.53,9.51l6.51,3.6L793.31,734s-57.79-27.26-66-40.23A89.94,89.94,0,0,1,715,660.29C722.34,638.53,711.11,603.5,689.68,598.09Z"/><path class="cls-5" d="M796.74,726.09,793.31,734s-57.79-27.25-66-40.22a85,85,0,0,1-8.2-17.12c2.63-1.71,5.19-1.83,7,1.5,5.8,10.49,17.44,17,17.44,17l32.72,16.36Z"/><path class="cls-4" d="M745.62,530.52c7.76-1.42,18.43-2.87,26.09-.09,15.54,5.63,30.95,14.92,36.44,18.37a12.12,12.12,0,0,1,3.48,3.4L831,580.73a12,12,0,0,0,3,3.11l19.17,13.54,2.4-5.51-6.51-3.59a30.92,30.92,0,0,1-10.53-9.52l-19.24-27.82a24.46,24.46,0,0,0-7.39-7c-8.91-5.42-28.59-17.11-34.5-18.31C764.13,523,752.66,527.3,745.62,530.52Z"/><path class="cls-40" d="M825.12,733c28.47-14.23,51.54-57.26,51.54-96.1s-23.07-58.81-51.54-44.57-51.53,57.26-51.53,96.1S796.66,747.26,825.12,733Z"/><path class="cls-41" d="M828.49,720.13c20.48-10.24,37.08-43.23,37.08-73.68s-16.6-46.84-37.08-36.6-37.08,43.23-37.08,73.68S808,730.37,828.49,720.13Z"/><path class="cls-42" d="M802,716.78c-6.53-6.68-10.56-18.26-10.56-33.25,0-30.43,16.61-63.44,37.08-73.67a27.12,27.12,0,0,1,10.75-3c6.54,6.67,10.57,18.25,10.57,33.24,0,30.43-16.62,63.45-37.09,73.68A27.12,27.12,0,0,1,802,716.78Z"/><path class="cls-43" d="M829.74,752.35c-11.4-7.56-18.53-26.09-18.53-51.35,0-40.64,17.81-78.55,47.25-93.27,13.4-6.7,27.21-.27,27.21-.27l18.55,8.38-7.46,15a97.77,97.77,0,0,1,3.81,28.32c0,36.75-15.86,75.18-36.55,91l-6.82,16Z"/><path class="cls-5" d="M859.13,755.66l-3.61,8.44-25.63-12.86c-6-4.31-10.67-10.79-13.66-21.73l40,20Z"/><path class="cls-4" d="M853.9,611.58q2.6-1.64,5.32-3c12.71-6.35,25.81-.25,25.81-.25l17.61,7.95-7.08,14.22c.22.73.43,1.47.64,2.23Z"/><path class="cls-44" d="M882,765.23c25.46-12.73,46.1-56,46.1-96.69S907.44,605.22,882,618s-46.09,56-46.09,96.69S856.52,778,882,765.23Z"/><path class="cls-45" d="M881.1,742.33c15.92-8,29.21-37.13,29.7-65.14s-12-44.29-27.94-36.33S853.66,678,853.17,706,865.19,750.28,881.1,742.33Z"/><path class="cls-46" d="M862,738.81c-5.63-6.38-9-17.95-8.78-32.81.49-28,13.79-57.19,29.69-65.14a17.52,17.52,0,0,1,8.1-2c5.63,6.39,9,17.95,8.78,32.82-.49,28-13.79,57.19-29.7,65.14A17.31,17.31,0,0,1,862,738.81Z"/><path class="cls-47" d="M712.82,659.85a13.47,13.47,0,0,1,17.56,6.75l3.12,6.82a13.45,13.45,0,0,1-6.91,18l-20.1,8.66a13.45,13.45,0,0,1-17.56-6.75c-1-2.23-2.1-4.57-3.13-6.82a13.45,13.45,0,0,1,6.91-18Z"/><path class="cls-48" d="M690.36,556.94a13.45,13.45,0,0,1,17.56,6.75l4.41,9.62a13.45,13.45,0,0,1-6.91,18l-14.63,6.3a13.46,13.46,0,0,1-17.56-6.75c-1.42-3.12-3-6.48-4.41-9.62a13.48,13.48,0,0,1,6.91-18Z"/><path class="cls-27" d="M648.69,575.86a13.46,13.46,0,0,1,17.47,6.79l4.4,9.62a13.47,13.47,0,0,1-7,18l-13.75,5.8a13.46,13.46,0,0,1-17.47-6.79l-4.41-9.62a13.47,13.47,0,0,1,7-18Z"/><path class="cls-49" d="M607.79,594.2A13.46,13.46,0,0,1,625.26,601c1.19,2.61,2.47,5.38,3.68,8a13.47,13.47,0,0,1-7,18l-6.78,2.86a13.46,13.46,0,0,1-17.46-6.78l-3.68-8a13.45,13.45,0,0,1,7-18Z"/><path class="cls-50" d="M612.09,616.71c-2.38-.12-4.63-2.4-5-5.08s1.24-4.76,3.63-4.64,4.64,2.4,5,5.08S614.48,616.83,612.09,616.71Z"/><path class="cls-50" d="M648.05,601.78c-2.39-.12-4.64-2.39-5-5.08s1.25-4.76,3.64-4.63,4.63,2.39,5,5.08S650.44,601.9,648.05,601.78Z"/><path class="cls-50" d="M689.54,583.19c-2.39-.12-4.64-2.4-5-5.08s1.25-4.76,3.64-4.64,4.63,2.4,5,5.08S691.93,583.31,689.54,583.19Z"/><path class="cls-50" d="M708.42,686.68c-2.38-.12-4.63-2.4-5-5.08s1.24-4.76,3.63-4.64,4.64,2.4,5,5.08S710.81,686.8,708.42,686.68Z"/><path class="cls-51" d="M254.63,615.65a7.52,7.52,0,0,0,2.11-7.36c-.75-2.46-2.9-3.16-4.82-1.55a7.5,7.5,0,0,0-2.11,7.35C250.56,616.55,252.71,617.25,254.63,615.65Z"/><path class="cls-52" d="M260.48,678.93c2.27-.08,4.09-2.26,4.07-4.87s-1.88-4.65-4.15-4.57-4.08,2.26-4.06,4.87S258.22,679,260.48,678.93Z"/><path class="cls-53" d="M244.88,588.64,262,635.27"/><path class="cls-53" d="M259.6,644.39l1.69,55.83"/><path class="cls-53" d="M596.16,619l30.55-13"/><path class="cls-54" d="M630.52,604l37-15.67"/><path class="cls-55" d="M672.16,585.45l37.77-16"/><path class="cls-56" d="M688.59,690l42.56-18"/><path class="cls-57" d="M295.73,467.67a233.56,233.56,0,0,0,20.59,62.58l63.95-32c-9.09-18.53-17.23-39.73-22-61.9Z"/><path class="cls-58" d="M753.37,592.44,742.5,577.76l58.72-29.36,9.7,15.32-3.86,7.54L764.7,592.44Z"/><path class="cls-59" d="M808,569.46l-.92,1.8L764.7,592.44H753.37l-7.8-10.54L799,555.21Z"/><path class="cls-58" d="M799,555.21l2.26-6.81,9.7,15.19L808,569.5Z"/><path class="cls-53" d="M791.83,626.25l-21.45-10.72,2.88-13.15L813,582.53l12.46,1.32,9.14,4.57"/><path class="cls-53" d="M655.05,677l20.72,14.65"/><path class="cls-26" d="M393.84,550.49l157.94-79,11.62,16.24L403.47,567.14Z"/><path class="cls-26" d="M416.46,582.86,527,527.58l5.21,7.28L421.29,589.74Z"/><path class="cls-26" d="M454.61,640.76,528.18,604l5.21,7.27-74.34,36.59Z"/><path class="cls-26" d="M433.86,614.45l126.35-63.3A81.51,81.51,0,0,0,572.57,567L445.21,630.24A60.2,60.2,0,0,1,433.86,614.45Z"/><path class="cls-60" d="M338.27,594.14l17.78,4.93,5.47-31.68"/><path class="cls-60" d="M382.69,654.73l17.77,4.92L405.93,628"/><path class="cls-60" d="M429.85,722.72l17.77,4.92L453.09,696"/><path class="cls-61" d="M317.65,456.71,337.09,447l8,23.32-20.3,9.34Z"/></g></svg>