<?xml version="1.0" encoding="UTF-8"?>
<svg id="navigating" xmlns="http://www.w3.org/2000/svg" viewBox="0 0 1200 1200">
  <defs>
    <style>
      .cls-1 {
        fill: #D13415;
      }

      .cls-2 {
        fill: #F5A898;
      }

      .cls-3 {
        fill: #5C271F;
      }

      .cls-4 {
        fill: #FDBDAF;
      }

      .cls-5 {
        fill: #E54D2E;
      }
    </style>
  </defs>
  <path class="cls-2" d="M993.3,661.73c8.41,1.99,15.77.13,18.37,6.49.32,11.99.01,41.29.27,83.86.17,137.27,1.27,383.1.87,412.02-2.59,2.46-8.65-1.61-15.69-2.45-58.14-13.96-264.12-63.03-303.32-72.53-3.84-1.16-4.09-3.25-4.09-7.81,1.79-26.9-18.39-397.78-21.27-432.6-.4-6,1.41-9.24,8.83-10.15,39.98-3.6,83.9,6.28,123.08,9.06,63.8,4.75,131.49,4.45,192.8,14.1l.17.02Z"/>
  <path class="cls-4" d="M665.23,638.32c6.61,1.29,5.08,6.42,5.88,14.27.32,5.96.67,11.69,1,17.8,2.63,49.9,7.94,134.84,9.13,164.68-.24,4.83,2.32,21.84,3.01,39.5,1.11,15.37,5.67,101.39,6.17,129.44.24,11.84-.09,24.7.86,36.52,2.18,27,7.1,48.12-25.53,56.15-93.48,27-193,43.56-283.95,77.37-6.38,2.12-13.26,5.27-19.46,3.67-3.31-.95-3.75-6.29-3.63-10.58.26-46.51-.53-117.39.3-153.47.63-6.98-3.23-79.62-3.52-83.41-1.24-35.82-2.29-71.94-5.22-107.66-1.77-22.33-3.74-44.67-6.85-66.87-1.13-9.75-3.75-19.72-4.12-29.41-.24-10.39,5.91-15.65,15.58-18.36,49.21-12.26,98.67-23.81,148.06-35.32,37.76-8.86,78.06-19.16,116.87-27.16,14.27-2.6,31.67-7.26,45.31-7.17h.1Z"/>
  <path class="cls-2" d="M130.57,617.8c62.84,27.26,123.24,60.19,186.52,86.48,7.76,3.28,15.38,7.91,19.68,15.07,5.26,8.5,6.26,19.4,7.94,29.3,2.73,17.81,4.58,35.82,6.17,53.76,3.74,42.55,5.96,85.45,6.58,128.22-.09,4.26,3.99,75.23,3.43,89.79,0,29.77.01,117.66,0,144.4-.04,2.66.07,5.68-1.56,7.29-2.17,1.75-5.08.8-9.96-.08-2.91-.67-6.31-1.61-9.94-2.65-12.82-3.63-25.03-7.92-37.33-12.55-57.69-21.91-116.85-39.08-173.93-62.43-6.56-3.47-14.22-5.89-13.82-12.28-.23-41.61-2.57-351.98-3.21-467.24-.37-5.31,14.86,1.31,19.27,2.85l.18.07ZM143.34,991.84c-5.54,5.85-4.44,15.16-4.63,23.88,0,4.06.04,8.45.09,12.89.62,13.58-1.16,30.92,4.11,42.55,3.97,7.85,12.44,11.6,20.23,15.14,8.53,3.56,19.14,7.86,27.41,9.65,9.82,2.21,15.39-.4,17.84-9.23.87-3.14,1.26-7.02,1.51-10.54.98-23.66,4.89-53.13-2.39-69.21-5.19-9.1-19.39-11.66-29.63-15.19-10.68-3.09-26.32-7.49-34.44-.04l-.09.09Z"/>
  <path class="cls-1" d="M1035.24,482.25c11.69-.92,21.01-4.44,16.65,11.07-8.28,40.56-12.12,103.61,33.61,124.47,12.76,5.96,26.84,7.74,40.73,9.3,5.08.6,11.11,1.15,15.69,1.94,2.96.54,5.19,1.3,6.53,2.84,1.85,2.15,1.89,5.53,1.95,8.42.01,10.68.02,30.18,0,40.76-.07,3.35-.09,7.2-2.93,9.18-2.34,1.73-7.73,2.14-11.46,2.5-42.49,3.06-94.76-3.27-128.15-31.02-10.67-8.55-18.73-20.04-26.21-31.38-10.43-16.36-17.86-33.01-23.46-52.04-3.49-12.55-22.95-72.77-11.64-79.02,1.98-1.27,4.42-2.05,6.79-2.76,8.57-2.52,23.57-5.94,34.87-8.33,15.59-3.74,30.6-4.41,46.85-5.9l.2-.02Z"/>
  <path class="cls-5" d="M996.3,481.93c-8.06-4.06-14.65-13.09-17.45-22.17-7.86-22.78,5.82-46.76,29.8-47.85,12.66-.65,19.8,1.53,25.61,13.42,5.49,9.65,9.41,19.98,6.23,31.12-4.72,19.95-23.85,36.04-44.03,25.56l-.16-.09Z"/>
  <path class="cls-3" d="M947.47,276.95c-.85-5.51-3.02-12.61-7.38-16.04-3-1.54-5.09,2.03-6.81,4.22-5.22,7.59-13.23,19.47-18.05,26.61-4.52,6.57-3.03,7.11,2.79,3.1,3.73-2.51,8.16-7.11,10.8-8.76,4.32-2.85,3.2,2.61,1.98,6.58-28.65,67.01-56.17,161.41-139.59,162.86-3.33-.11-6.01-.77-7.47-2.29-2.38-2.46-1.39-6.55-.67-9.72,3.39-13.55,8.15-31.67,2.47-42.09-5.06-9.35-18.92-11.13-28-6.12-15.73,8.6-22.3,35.83-12.07,51.55,3.54,5.43,10.26,8.79,14.61,12.89,5.76,5.06,4.25,11.22.25,17.34-7.96,12.42-17.68,26.23-28.03,37.14-16.97,17.92-37.85,32.23-63,31.66-7.7-.38-8.38-4.99-5.72-11.05,9.35-20.65,21.22-56.38-12.94-57.82-12.21-.05-18.98,12.43-22.2,23.2-3.27,12.09-4.33,24.58,3.33,34.51,2.54,3.42,5.87,7.06,8.56,10.44,1.4,1.96,3.12,3.74,3.23,6.15.04,2.28-2.48,4.06-5.96,7.2-13.58,12.04-30.08,26.69-43.36,38.47-2.97,2.69-9.61,8.22-8.88,8.65.02.11.08.2.2.25.48.26,1.9.03,3.93-.56,4.29-1.3,8.92-3.26,13.03-5.59,14.49-8.27,26.67-20.22,38.47-31.67,7.62-8.14,12.15-13.21,24.28-13.06,10.86-.42,21.57-.46,31.59-3.44,28.1-10.69,52.08-43.75,69.05-68.84,3.37-5.41,4.96-12.21,9.93-16.09,2.78-2.05,6.74-2.45,11.56-2.53,4.93-.09,10.62.18,15.77.26,40.05,2.57,73.42-42.7,92.95-76.42,14.32-25.34,20.78-55.72,35.56-80.5,1.44-2.25,3.03-5.3,5.06-6.35.8-.32,1.46.25,1.87.94,1.23,1.89,2.51,6.17,4.22,6.53,2.06.14,2.78-2.63,3.39-4.27,1.89-7.73,2.29-18.67,1.26-27.14l-.03-.19ZM631.58,515.78c-.76-5.88.98-12.51,4.19-17.92,5.18-8.28,14.17-15.18,24.07-13.42,9.92,2.75,9.22,13.46,7.12,21.65-1.66,7.54-3.83,15.57-6.15,22.99-2.39,7.33-3.46,11.33-8.64,9.91-8.35-2.85-19.42-14.17-20.56-23l-.03-.21ZM774.16,401.94c5.67,1.99,8.93,6.98,8.87,13.22.15,7.34-2.84,16.33-5.01,23.83-2.69,10.79-4.99,16.78-16.45,11.76-24.47-11.86-15.13-58.73,12.41-48.88l.18.07Z"/>
  <path class="cls-3" d="M679,843.6c48.62-8.81,94.14-24.26,138.68-45.52,3.39-1.65,12.3-5.76,4.36,1.33-15.4,13.32-36.32,21.41-54.89,28.46-37.18,14.38-75.74,23.36-115.25,29.44-18.92,2.95,5.51,8.1.95,15.89-4.53,4.57-14.37.65-19.99-2.02-25.28-13.4-12.89-27.8,6.93-38.28,11.3-5.54,9,1.73,1.66,6.8-2.8,2.29-6.77,4.04-8.44,7.25-.93,3.93,8.38,3.01,12.5,2.73,11.24-1.03,22.21-3.97,33.3-6.05l.2-.04Z"/>
  <path class="cls-5" d="M538.94,945.16c-.8.28-1.7.49-2.7.61-7.76.92-13.93-5.92-18.97-10.48-18.19-16.49-72-70.67-77.51-91.9-2.58-9.94-2.85-30.39,9.27-34.05,11.98-3.62,25.72,5.12,35.2,11.43,5.46,3.64,26.35,25.13,32.96,21.9.76-.37,1.35-1,1.92-1.62,11.17-12.06,20.22-25.84,30.56-38.73,8.04-10.02,19.01-25.96,32.22-29.5,24.78-6.64,22.63,18.53,18.9,36.18-.52,2.47-1.17,4.91-1.88,7.34-7.94,27.41-21.12,53.56-33.23,79.29-5.94,12.63-12.01,25.21-17.85,37.88-2.32,5.02-3.81,9.87-8.9,11.66Z"/>
  <path class="cls-3" d="M358.11,949.08c9.49-5.46,22.08-8.75,31.11-14.42,6.38-3.7,3.78-10.34,2.45-16.21-1.66-6.99.55-12.97,8.2-13.58,12.8-.91,53.74,2.9,58.17,13.56.45,3.11-.83,5.33-2.15,8.88-1.38,3.4-3.24,7.66-5.29,12.2-4.02,8.9-9.31,20.11-13.59,28.06-3.51,7.01-8.43,7.18-13.03,1.25-2.1-2.65-3.39-6.01-4.57-8.04-.91-1.79-2.49-3.27-4.62-2.51-2.57.73-6.28,3.13-10.54,6.47-10.54,8.28-24.52,22.46-33.72,32.22-22.01,23.01-39.62,48.76-55.93,76.1-3.1,5.04-6.04,5.41-11.25,1.89-3.93-2.5-8.12-4.82-12.76-7.11-3.69-1.86-7.28-3.58-10.02-5.1-4.79-2.42-7.43-5.5-6.13-10.71,3.6-16.29,21.47-40.43,32.14-54.24,13.56-16.6,33.01-36.37,51.37-48.63l.15-.08Z"/>
  <path class="cls-3" d="M552.22,1031.29c-5.84,7.2,4.91,34.22.21,45.68-2.5,5.47-9.82,6.28-15.82,6.64-5.36.21-11.5-.12-16.34-1.49-4.07-1.04-6.55-3.98-7.52-7.92-2.09-7.42-2.73-21.07-2.02-30.48.5-6.14.36-9.75-6.46-10.74-7.91-1.3-10.05-5.1-8.26-12.62,3.68-14.95,15.3-37.12,27.45-42.79,9.7-4.85,15.32,4.29,22,10.78,4.64,4.87,9.54,10.11,13.84,14.87,3.84,4.3,6.6,7.19,7.89,10.8,1.8,4.72-.56,10.19-4.88,12.66-3.72,2.35-7.23,2.25-10.01,4.54l-.08.07Z"/>
  <path class="cls-3" d="M823.56,972.28c-7.11,5.45,15.98,20.85,20.25,17.04l.07-.07c3.96-7.26-15.43-20.47-20.32-16.96Z"/>
  <path class="cls-3" d="M808.91,956.7c-3.05-3.11-8.37-4.85-12.85-5.37-3.09-.45-8.57.11-6.97,4.25,1.8,4.37,14.15,11.96,19.96,11.31,4.67-1.19,2.71-7.52,0-10.04l-.14-.15Z"/>
  <path class="cls-3" d="M760.42,943.44c-3.36,1.23-5.25,5.85-2.32,8.51,2.65,2.79,16.34,4.76,19.28,2.4l.1-.08c1.76-1.37,1.01-3.77-.17-5.35-3.49-4.53-12.13-7.22-16.9-5.48Z"/>
  <path class="cls-3" d="M702.99,947.45c-6.02,1.68-14.76,6.84-17.71,12.17l-.07.14c-1.18,2.31.36,3.86,2.66,3.82,4.18.08,11.04-3.58,15.02-6.78,4.97-3.65,7.91-10.83.1-9.36Z"/>
  <path class="cls-3" d="M894.92,1078.45c-.93-5.09-5.55-20.17-10.62-18.07-3.49,2.53,6.45,30.17,10.38,29.51l.07-.02c2.01-1.41.98-6.79.17-11.42Z"/>
  <path class="cls-3" d="M742.21,942.52c-3.21-3.56-20.02-2.14-19.43,4.41,1.26,5.57,23.37,2.83,19.51-4.31l-.08-.1Z"/>
  <path class="cls-3" d="M884.05,1049.43l.04-.05c.3-.39.38-1.3.27-2.53-.42-4.2-2.21-8.76-5.11-11.96-2.92-3.36-7.84-5.88-9.09-5.29-1.46,1.1,2.14,5.23,2.97,6.64,1.64,1.8,9.45,14.82,10.92,13.19Z"/>
  <path class="cls-3" d="M849.62,998.66c-1.41,5.52,4.36,12.28,8.03,16.09,1.48,1.59,4.39,3.56,5.4,2.56l.08-.07c1.53-1.71.27-5.57-.53-7.77-3.19-8.46-11.51-13.91-12.98-10.8Z"/>
  <path class="cls-3" d="M675.84,965.38c-6.44-1.21-13.19,7.98-16.88,12.6-2.37,3.13-5.75,8.15-8.12,9.29-1.67,1.02-3.39-.1-4.81-1.05-4.02-3.18-4.69,1.4-4.87,5.04-.05,4.54.83,9.16,1.39,13.68,1.01,8.53,1.77,12.95,9.73,8.36,3.5-2.21,14.11-6.8,14.06-10.87-1.61-2.99-9.08.09-11.85.05-5.83.29-1.76-6.71,2.25-11.61,3.36-3.99,7.07-7.83,10.6-11.71,4.43-5.13,11.18-11.37,8.57-13.74l-.07-.04Z"/>
  <path class="cls-3" d="M519.49,331.74c-9.81-46.96-24.91-108.72-43.12-153.1-2.08-5.54-7.78-8.82-12.7-11.47-5.67-3.05-10.69-6.56-16.6-9.1-1.11-.48-2.29-1.01-2.96-2.01-.46-.69-.63-1.52-.71-2.35-.38-3.96,1.16-7.7,2.41-11.37.63-1.84,1.36-3.74,1.62-5.69.14-1.03-.41-3.47-.06-4.27.13-.29.44-.44.73-.57,4.46-1.99,10.05-4.73,12.64-8.92,2.79-4.52,4.91-9.72,6.53-14.77,6.42-20.03,9.99-49.34-13.46-57.1-5.6-2.24-12.22-3.61-16.61-7.42-7.69-6.42-13-22.35-25.03-21.99-10.34,2.3-9.51,18.11-11,27.91-.87,10.06-4.31,20.11-3.23,30.24,2.57,17.64,25.63,12.45,26.18,36.99.51,6.1-.66,12.84-4.45,17.8-3.41,4.45-6.85,9.28-13.03,9.54-5.65.25-10.99-1.94-16.76-1.51-6.05.45-12.19,1.23-17.79,3.68-30.1,11.15-60.71,22.99-88.64,38.2-10.17,5.53-20.81,10.15-30.89,15.81-21.3,13.1-43.22,30.91-58.61,51.11-7.82,11.15-11.39,23.68-23.31,30.94-6.63,4.72-15.3,11.33-18.07,18.02-5.14,10.98,5.21,21.08,15.65,22.67,5.17,1.02,10.41.21,15.55-.6,29.81-6.13,84.71-28.55,114.01-40.11,3.04-1.09,8.21-3.9,10.52-1.34,2.02,3.83-1.08,11.52-2.13,16.21-6.66,22.76-13.06,45.46-12.77,69.21-3.65,36.61-45.69,75.07-72.39,97.75-11.63,9.89-27.01,14.72-39.36,23.5-6.49,4.62-8.94,12.11-11.41,19.06-4.68,12.46-24.41,5.64-35.48,14.32-15.31,10.22-3.39,51.24-4.91,68.69-.04,8.39-1.59,17.6,2.08,25.35,4.7,9.8,16.57,11.26,19.59-.15,2.9-9.89.94-21.34,3.01-31.25,3.24-18.86,21.12-27.65,38.95-24.47,37.47,4.25,76.99-3.72,108.7-24.75,16.48-11.21,30.14-31.04,47.73-39.66,7.25-2.93,8.02,6.66,8.08,12.24.95,42.53,4.87,87.44,26.14,124.9,8.27,14.17,20.92,11.42,29.44,19.95,3.8,4.58,3.96,12.41,5.57,18.48,5.45,25.56,26.21,22.47,47.03,16.95,14.13-4.01,29.56-7.14,42.18-14.74,13.35-9.5,4.68-20.94-9.06-19.95-12.4-.13-26.48,7-38.44,3.34-8.35-2.41-16.04-12.74-11.13-21.03,2.57-4.69,7.99-8.32,11.62-13.2,7.58-10.24,6.27-24.9,6.34-37.04-2.53-50.89-6.9-103.59-17.83-153.79-2.75-10.56-1.65-37.69,8.23-43.9,6.79-2.83,11.93,4.41,14.28,10.8,3.86,9.7,3.03,25.59,15.08,29.22,7.06,1.83,16.71.72,22.41-2.48,5.28-2.88,6.18-8.96,5.14-14.59-4.17-18.13-7.12-22.64,2.94-39.81l.08-.16c6.01-11.96,3.4-25.66,1.46-38.23ZM425.31,91.23l.05-.13c2.28-4.99,7.54-5.9,13.72-7.84,3.76-1.08,7.44-2.5,10.92-4.41,10.44-5.88,18.48-13.31,17.95,3.91-.27,7.52-.33,15.41-2.75,22.62-3.53,9.87-10.52,21.37-21.22,22.85-6.03.71-11.91-2.71-14.41-8.3-2-4.2-2.76-9.39-3.73-14.48-.93-5.59-2-10.12-.53-14.21ZM191.33,310.39l-.07.15c-2.99,6.04-16.49,9.44-22.44,6.46-2.73-1.45-3.3-5.18-4.34-8.01-.75-2.53-2.4-4.6-4.62-5.93-3.32-2.3.94-5.58,3.41-8.02,6.78-5.97,18.62-14,24.61-2.8,2.97,5.51,5.59,12.59,3.46,18.16ZM512.18,407.05l.05.21c.77,3.3,1.36,6.9-.03,9.99-1.61,3.32-5.88,4.11-9.1,2.72-4.1-1.73-8.89-7.08-12.25-7.56-3.03-.59-5.05,3.19-7.55,3.91-4.25.68-7.86-17.63-7.6-21.28,0-3.55,1.15-6.89,4.07-8.93,4.17-2.94,11.82-4.29,17.18-2.86,8.48,2.35,12.83,16.16,15.22,23.81ZM488.89,379.6l-.21.04c-9.24,1.58-19.91,1.55-25.91-4.36-7.36-7.57-4.15-21.33-4-31.49.17-3.67.28-7.51.37-11.1.42-19.9,1.39-40.05,2.07-60.3.11-11.64,1.96-24.94-.38-35.58-.82-3.88-1.9-7.94-3.04-11.74-.67-2.34-1.8-5.95-2.93-7.18-1.61-.46-.63,10.73-.65,13.3.53,12.35,1.48,24.69,1.98,37.04.85,13.81-.36,27.35-1.93,41.01-2.56,22.27-2.38,48.05-4.74,70.86-1.11,8.67-3.39,21.43-14.35,20.3-3.02-.21-6.69-1.31-9.87-2.27-11.51-3.54-23.6-6.4-35.29-9.2-12.65-3-25.53-4.86-37.92-9.57-6.56-2.46-12.84-5.57-19.13-8.64-3.28-1.6-6.56-3.21-9.87-4.74-8.16-4.32-19.95-6.43-21.11-16.08-.44-3.86.68-9.07,1.99-15.26,3.51-15.61,8.69-33.97,12.98-49.42,2.09-7.49,5.59-13.5,12.4-17.32,12.81-6.99,28.78-12.11,39.88-20.76,3.16-2.4,6.19-5.22,8.36-8.41,4.1-6.17.11-6.37-4.77-3.9-7.61,3.91-15.06,8.92-22.66,12.66-43.58,21.97-92.52,46.84-139.61,58.02-16.53,3.35-22.48-13.87-21.21-27.64,1.39-15.39,9.25-25.57,21.12-35.72,16.23-14.23,37.3-31.04,54.43-42.91,29.58-20.35,69.16-26.16,100.46-43.85,6.3-3.61,12.25-7.53,19.77-8,5.86-.39,11.88.68,17.8,2.28-.8,4.75-.71,9.99-.3,14.83.48,5.72,2.31,11.65,6.64,15.41,6.18,5.36,16.19,4.63,22.64-.4,4.48-3.48,7.38-8.57,8.89-14.08,4.6,2.17,9.24,4.23,13.98,5.97,15.95,5.82,22.67,20.71,27.26,35.93,11.25,36.23,23.17,82.65,30.05,120.23,4.25,25.23,7.76,46.71-23.16,52.02Z"/>
  <path class="cls-3" d="M402.22,813.05c-2.66-2.6-4.36-5.9-7.15-8.43-1.27-1.15-3.21-2.16-4.59-1.15-.77.57-1.06,1.62-.96,2.58.1.95.53,1.84.96,2.7.43.88.87,1.77,1.3,2.65.31.63.62,1.35.38,2-.56,1.52-2.77,1.79-5.48,1.48-4.71-.53-10.93-2.81-12.57-3.35-5.39-1.75-10.66-3.93-16.09-5.56-1.93,6.98,6.91,8.14,11.54,9.91,6.6,2.52,12.73,5.01,20.01,4.47.81,4.37-4.98,3.1-7.23,5.68-7.16,8.2,25.72,5.51,27.33-1.44-1.23-4.37-4.24-8.4-7.45-11.54Z"/>
  <path class="cls-3" d="M344.95,796.67c-.85,0-1.67.36-2.37.84-3.71,2.57-3.45,9.74,1.77,9.96,6.29.27,6.3-10.86.6-10.8Z"/>
  <path class="cls-3" d="M295.15,755.2c-.85,0-1.67.36-2.37.84-3.71,2.57-3.45,9.74,1.77,9.96,6.29.27,6.3-10.86.6-10.8Z"/>
  <path class="cls-3" d="M321.77,785.27c-5.36-2.9-10.1-6.96-13.79-11.81-.76-.99-1.52-2.06-2.63-2.62-1.12-.56-2.71-.4-3.32.69-.54.98-.09,2.19.42,3.18,4.12,7.96,11.69,13.47,18.98,18.68,1.51,1.08,6.33,4.65,8.43,3.11,2.05-1.51-.19-5.68-1.42-6.96-1.83-1.92-4.34-3.01-6.68-4.27Z"/>
  <path class="cls-3" d="M282.15,731.57c-3.33-5.11-5.56-10.93-6.49-16.95-.19-1.23-.35-2.53-1.06-3.56-.71-1.03-2.19-1.65-3.25-.98-.94.6-1.12,1.88-1.14,3-.17,8.97,3.85,17.41,7.78,25.47.82,1.67,3.35,7.11,5.92,6.75,2.52-.35,2.54-5.09,2.07-6.8-.7-2.56-2.38-4.72-3.83-6.94Z"/>
</svg>