<?xml version="1.0" encoding="UTF-8"?>
<svg id="analysing" xmlns="http://www.w3.org/2000/svg" viewBox="0 0 1200 1200">
  <defs>
    <style>
      .cls-1 {
        fill: #D13415;
      }

      .cls-2 {
        fill: #F5A898;
      }

      .cls-3 {
        fill: #5C271F;
      }

      .cls-4 {
        fill: #FDBDAF;
      }

      .cls-5 {
        fill: #E54D2E;
      }
    </style>
  </defs>
  <path class="cls-4" d="M523.26,740.58c31.53,31.4,102.18,99.19,102.59,99.88,3.66,6.24,3.17,80.11,5.38,103.75l2.44,155.17-509.34-2.43c-4.51-42.42,4.17-84.93,7.25-127.31,1.97-27.08,2.34-53.28,2.23-79.98-.14-34.33,12.9-26.29,37.11-33.43,5.99-1.77,352.34-115.65,352.34-115.65Z"/>
  <path class="cls-2" d="M726.88,759.51c9.51,7.34,16.31,18.57,22.23,29.01,11.93,22.61,19.49,48.39,25.67,73.29.69,2.72,1.86,6.99,3.43,8.52,4.69,5.14,11.56-15.58,14.39-18.81,13.99-23.1,49.47-30.31,71.18-14.57,24.36,17.03,44.05,66.24,27.23,93.31-10.22,15.28-23.46,12.67-27.99,21.08-2.27,4.88-1.2,11.37-1.64,17.03-.32,7.05-1.11,14.09-3.19,20.85-3.64,12.54-12.94,24-26.18,19.84-4.97-1.2-10.7-5.13-15.04-7.34-5.57-2.91-7.44-.34-8.18,5.18-2.07,17.9-3.1,42.42-9.46,57.54-2.63,6.04-7.7,9.87-14.27,11.17-11.1,2.43-22.97-2.34-30.42-10.88-2.48-2.74-6.22-6.94-7.67-6.79-3.53.46-2.23,11.91-2.7,15.24.43,12.74-7.71,25.61-20.34,28.6-9.1,1.85-18.47-2.73-26.18-7.62-51.45-35.29-60.71-103.67-65.73-161.8-1.88-27.72-3.95-55.5,1.42-82.68,7.69-36.43,28.39-82.27,66.01-92.59,9-2.67,19.32-3.49,27.27,2.28l.15.11Z"/>
  <path class="cls-4" d="M973.74,814.36c4.68.05,8.36,2.38,10.31,6.86,1.44,3.03,2.2,7.24,2.72,10.87,10.51,69.66,24.86,146.15,38.25,215.27.86,4.17,1.43,6.3,1.77,5.67,2.9-33.43,9.47-148.45,11.92-181.87.34-4.46,2.1-6.71,7.05-8.29,8.84-2.46,18.79-2.48,27.86-2.04,5.65.56,12.26.55,12.51,5.14-2.44,54.06-10.71,206.21-11.89,230.39-.17,1.93-.26,3.39-2.3,4.02-1.66.51-4.76.55-9.71.55-12.11-.06-35.85-.21-50.12-.3-16.01.31-21.89-2.66-27.45-16.72-15.17-50.46-17.28-106.36-25.16-159.2-4.19-28.47-9.24-58.72-15.64-86.49-1.35-6.53-2.1-10.9,1.83-14.9,3.33-3.3,10.06-5.35,17.12-7.23,3.48-.92,7.26-1.78,10.77-1.73h.16Z"/>
  <path class="cls-5" d="M1017.16,369.21c-10.77-13.64-14.45-32.16-11.15-49.04,3.92-20.99,21.9-63.12,38.4-76.21,6.89-5.41,14.54-5.37,17.46,3.14,5.26,17.91-.59,46.19-3.67,66.01-1.35,9.29-3.68,15.17-1.78,21.58,2.84,6.68,17.23,2.43,26.2,2.44,21.49-1.1,52.65-.48,68.79,13.68,15.78,13.71,6.43,39.18-7.96,50.2-19.18,14.94-58.46,7.11-80.24.13-17.81-5.95-33.8-17.63-45.94-31.77l-.12-.15Z"/>
  <path class="cls-1" d="M1129.35,549.97c1.75.76,1.94,3.25,1.95,7.46,0,9.54,0,27.41,0,38.11,0,7.49.2,12.2-1.1,19.38-3.13,17.11-10.83,43.02-18.01,61.18-6.92,16.12-22.48,37.94-29.35,51.62-2.19,4.31-3.14,7.84-3.88,13.08-3.91,35.94-6.32,72.62-6.78,108.76.1,10.35-4.18,13.27-13.6,8.21-7.75-4.02-15.27-8.6-22.45-13.53-12.59-8.93-25.71-18.33-38.21-27.31-2.98-2.2-5.68-4.07-8.54-5.05-5.97-2.05-11.9-.29-18.29,1.77-4.83,1.57-9.68,3.16-14.58,4.46-6.28,1.85-11.46,1.74-16.07-2.43-1.65-1.41-3.22-3.06-4.68-4.72-4.8-5.86-11.49-11.55-6.34-18.48,24.98-25.37,40.4-57.08,40.03-93.33.05-11.92,1.71-18.27,9.15-27.65,4.64-6.22,9.6-12.15,13.65-18.72,5.52-8.92,10.34-18.93,15.4-27.93,1.37-2.46,6.91-13.13,9.6-9.67,1.22,1.31,1.27,8.42,1.19,12.55.28,11.69-.7,21.81.69,32.28,2.84,15.07,13.79,51.86,22.08,69.24,2.62,4.99,7.45,8.57,8.11,5.83.36-2.52-.85-5.14-2.16-9.24-4.37-12.68-11.67-30.03-16.29-43.23-10.79-36.51-10.9-78,5.74-112.56,6.17-14.63,32.75-47.86,46.07-23.81,8.47,15.85-3.69,20.48-12.65,31.47-20.49,23.29-44.66,53.09-35.9,85.22,2.11,7.13,6.08,14.09,12.19,18.3,5.33,3.82,12.85,4.87,19.36,3.2,19.84-4.93,27.45-28.64,30.22-48.19,3.03-19.55-1.74-46.65-1.38-64.34-.25-6.18,1.88-9.25,6.63-11.95,5.23-3.21,14.36-7.27,21-9.21,3.3-.97,5.75-1.4,7.15-.82l.08.04ZM894.3,764.92c-2.63-.84-5.87.85-8.47,2.2-17.52,9.49-35,20.28-54.66,24.51-11.32,2.28-26.1,3.25-35.69-4.27-18.65-15.38-4.49-55.61,5.55-79.41,5.87-13.36,18.44-31.9,23.57-43.21,2.97-5.51,1.08-10.56-1.57-16.04-7.1-15.3-20.87-35.56-27.47-51.62-1.82-4.43-2.17-10.61-4.58-14.36-2.75-4.38-7.8-1.03-10.6,1.77-29.43,30.54-62.45,66.65-73.02,108.75-3.23,15.6,6.23,29.85,13.01,43.43,23.25,62.55,100.64,96.24,163.23,76.2,8.27-2.72,16.19-5.8,24.01-10.1,8.6-4.76,8.51-9.99,2.41-18.53-2.96-4.25-6.75-8.67-9.46-12.88-1.63-2.38-3.42-5.48-6.13-6.39l-.12-.04ZM869.75,408.54c-6.24,18.15-8.25,47.47-1.44,67.01,2.34,6,5.5,13.49,12.27,14.7,4.09.62,8.37-1.73,12.62-4.48,3.96-2.56,8.13-5.69,12.33-8.85,7.77-5.82,14.67-11.24,23.34-15.17,24.4-11.66,49.85-6.13,75.14-8,20.47-1.46,40.11-9.48,58.31-18.51,5.51-3.14,13.3-5.22,10.76-11.79-5.24-10.51-13.91-18.23-23.05-25.64-6.93-5.6-13.77-11.53-21.18-16.06-19.35-11.38-75.02-38.59-97.86-32.15-2.68,1.3-5.05,3.78-7.25,6.08-15.82,17.28-45.68,33.39-53.93,52.71l-.06.15ZM665.1,607.22c.58,1.82,2.33,1.41,4.84.91,35.54-11.88,69.89-27.43,102.99-44.97,6.02-3.35,7.46-8.88,5.86-15.25-2.29-10.34-5.03-20.58-7.19-31.01-.52-2.64-1.16-5.78-2.25-8.08-.84-1.74-1.85-2.78-3.45-2.74-4.4.79-7.73,4.76-11.34,7.5-7.54,6.4-15.07,12.97-21.81,19.4-8.49,8.07-16.39,16.35-24.97,24.16-3.61,3.19-9.63,8.81-12.94,10.26-3.34,1.34-1.66-2.25-.48-3.63,2.06-2.65,5.86-5.85,8.62-8.64,16.77-16.36,50.73-48.55,61.24-59.27,2.59-3.39,2.42-8.3,2.72-12.62.44-10.9-.65-21.92.41-32.92.44-5.05,1.38-9.7,2.73-14.55,3.29-11.5,8.91-30.35,14.63-42.35,2.4-4.24,6.35-6.91,8.26-11.42,1.48-3.32,2.94-7.06,2.42-10-.78-2.21-3.81-.27-6.25.91-75.44,43.68-131,130.59-126.84,219.22.37,7.86,2.57,10.29,2.8,15.08ZM772.79,486.12c2.05,1.7,6.44-1.14,8.7-3.14,19.62-16.43,35.08-38.13,55.35-52.65,2.89-2.12,6.99-7.3,9.49-9.85,5.73-6.01,10.4-10.69,16.27-16.83,3.58-3.8,5.3-8.45,6.8-13.54,3.41-10.68,8.71-27.21,11.93-37.31,1.05-3.3,1.41-5.36.31-6.26-2.46-1.51-6.76-.34-9.82-.14-10.99,1.29-20.15,2.93-31.45,6.27-12.34,3.96-30.25,9.03-37.41,20.32-2.33,3.5-4.13,8.06-6.35,11.44-4.18,6.23-8.5,10.94-10.47,18.19-8.2,25.51-17.17,50.75-15.76,78.03.34,2.56,1.08,4.53,2.3,5.41l.09.06ZM844.24,427.83c-12.89,14.76-58.15,55.91-71.5,69.59-1.27,1.39-1.43,2.22-1.06,4.31,3.02,12.62,8.9,34.71,11.74,46.04.28,1.14.56,2.15.84,3.19.91,3.28,1.36,3.92,2.99,3.07.25-.12.52-.28.82-.46,21.97-13.91,67.66-42.68,81.99-51.88,1.62-1.15,2.39-2.24,2.2-4.43-.35-3.27-2.34-7.99-3.88-11.56-9.68-18.97-9.87-39.83-7.89-60.41.14-2.61.74-7.07-1-8.69-4.27-2.36-12.73,7.64-15.18,11.12l-.07.1ZM913.3,528.85c-10.88-3.78-20.49-12.67-32.39-12.51-17.79-.06-53.68,17.75-68.21,29.34-7.73,5.61-10.09,15.49-13.27,24.1-1.66,4.9-2.92,9.32-1.79,14.26,2.23,10.53,10.99,29.24,20.95,41.96,7.06,8.72,17.09,18.88,25.89,10.38,9.34-9.75,18.78-23.32,27.58-33.81,19.11-22.75,43.62-39.74,65.72-59.35,8.58-9.46-8.05-10.33-14.04-11.65-3.47-.67-6.93-1.49-10.26-2.65l-.19-.07ZM944.36,461.86c-16.21,5.35-37.23,19.78-51.23,29.19-10.24,6.88-10.39,14.66,2,19.57,7.98,3.36,17.1,4.79,25.2,7.65,5.09,1.79,9.67,4.41,14.54,6.91,9.87,5.37,19.74,6.25,29.32-.57,5.73-3.66,11.8-7.98,17.54-11.79,11.32-7.53,22.15-12.9,34.15-18.57,8.61-4.11,19.2-7.16,29.12-9.92,6.07-1.72,13.4-3.74,19.01-5.53,4.2-1.37,6.27-2.37,7.91-5.48,4.05-8.87,7.68-22.46,9.92-32.16.37-1.78.61-3.87-.02-5.25-1.46-2.34-5.27-.44-7.74.41-21,8.75-41.96,19.25-64.51,22.71-21.34,3.66-43.9-2.04-65.07,2.81l-.16.04ZM947.5,544.77c-2.97.11-6.42,2.53-9.03,4.53-32.45,25.44-65.8,54.85-87.89,89.94-2.59,6.14,3.85,8.25,8.85,8.76,19.34,2.35,38-.51,56.42-6.72,13.7-4.52,27.26-11.64,39.83-18.53,4.44-2.62,7.75-4.37,9.97-8.59,5.84-11.55,1.51-42.04-7.79-59.67-2.98-5.18-5.28-9.63-10.23-9.72h-.14ZM797.99,781.99c16.83,14.32,65.95-6.82,86.55-23.32,1.59-1.35,2.55-2.44,2.78-3.52.36-1.52-.77-3.09-2.41-5.81-6.51-10.72-13.62-22.47-21.12-34.84-8.53-14.09-20.56-33.92-27.51-45.37-1.2-1.95-2.31-3.39-4.76-1.06-17.04,18.53-53.88,95.69-33.64,113.84l.11.1ZM953.92,540.91c1.55,3.22,4.45,6.75,6.94,11.51,2.16,4,3.96,8.18,5.43,12.48,2.93,8.58,4.58,17.7,5.26,26.77.49,4.5.02,11.93,1.4,14.46,1.23,2.15,3.11,1.46,5.63-.04,32.95-24.65,68.51-61.59,79.16-102.25-.35-.92-1.47-.58-2.34-.34-7.06,2.37-26.95,9.23-47.34,16.21-11.64,3.99-23.45,8.04-33.15,11.37-8.88,3.07-16.04,5.46-19.57,6.74-1.41.51-2.22,1.44-1.47,2.99l.04.09ZM1085.28,573.35c-2.03-.78-4.68,1.16-6.3,2.81-22.8,22.9-61.25,78.02-29.36,101.66,8.66,5.83,18.58,2.75,25.31-4.58,9.5-10,14.34-23.74,14.94-37.19.95-15.05-.09-34.04-.48-49.91-.27-4.2-.31-10.83-4.01-12.75l-.1-.04ZM1066.56,502.95c-2.14,5.78-5.09,11.23-7.87,16.75-1.98,4.24-7.69,13.76-4.96,16.33,3.57,2.55,12.85-2.9,17.53-2.74,9.27-.84,15.38,7.75,17.86,15.79,1.16,3.07,1.44,7.45,3.75,9.2,2.32,1.17,5.29-.93,7.6-1.98,7.55-4.03,18.22-8.21,23.47-12.11,4.53-2.92,4.71-6.75,3.43-11.64-2.96-13.4-12.29-44.04-16.62-54.19-.74-1.66-1.58-3.15-3.18-3.9-3.24-1.34-8.58-.45-12.79.04-5.36.82-11.25,1.61-16.19,3.49-2.53,1-4.39,2.8-5.55,5.22-2.47,5.18-4.08,13.51-6.41,19.54l-.07.19ZM919.05,650.22c-17.58,2.76-37.54,13.67-44.71,30.44-3.23,7.56-2.68,16.6,1.28,24.12,15.25,31.07,48.86-2.14,62.69-22.6,2.11-2.99,4-5.97,5.89-9.24,2.47-4.57,5.7-9.6,5.07-13.97-2.01-9.1-22.47-10.19-30.02-8.77l-.2.03ZM753.01,580.68c3.52-1.62,7.67-3.65,9.25-4.88,2.72-2.22-2.55-.72-4.22,0-28.38,12.15-56.29,26.33-86.24,33.99-3.46.93-7.41,2.43-9.14,5.42-1.64,2.62-1.56,6.48-1.13,9.72,3.78,27.56,12.54,53.97,23.54,79.44,1.29,3,3.44,7.85,6.51,8.41,1.8.28,3.38-1.59,3.99-4.66.79-4.19-.12-8.08-1.26-12.51-2.5-8.55-4.86-17.3-4.29-26.13,2.17-37.57,31.2-70.93,62.81-88.71l.17-.08ZM924.1,789.81c27.08-22.11,40.58-58.71,41.77-93.42-.06-2.12-.45-3.11-1.46-2.67-1.31.55-3.83,3.53-7.17,6.94-14.66,14.79-28.61,31-40.84,41.73-5.05,4.36-12.08,9.22-16.9,14.14-2.42,2.3-.11,5.76,1.92,8.85,2.14,3.32,4.37,6.77,6.56,10.17,2.57,3.91,5.45,8.66,7.93,12.05,2.5,3.39,4.75,4.32,8.06,2.28l.13-.08ZM1028.08,569.34c.13-1.35-.83-.85-2.89.96-12.92,11.46-35.98,31.83-50.43,44.71-4.45,3.91-5.12,9.81-6.96,15.29-4.07,13.41-9.41,24.91-5.1,37.87,1.36,4.43,5.04,10.17,9.6,4.97,21.51-32.78,43.75-66.91,55.77-103.73v-.07ZM702.37,687.23c5.28-5.52,8.68-14.74,12.34-21.82,6.49-13.86,13.16-28.03,22.45-40.3,10.92-14.81,24.88-27.28,36.22-41.66,1.45-2.04,1.9-3.43,1.01-3.82-.69-.33-2.22-.04-4.24.68-36.12,14.32-68.42,44.81-74.57,83.85-.99,6.9-1.7,15.5,1.17,21.88,1.24,2.63,3.56,3.12,5.52,1.29l.11-.1ZM962.8,678.45c-.73-4.63-4.67-11.85-9.24-8.07-1.35,1.13-2.43,2.75-3.44,4.25-2.89,4.47-6.24,9.56-9.96,14.66-6.18,8.48-13.3,17.23-21.19,23.94-8.31,7.44-18.45,10.94-29.37,9.11-26.86-4.16-30.67-40.33-12-57.94,2.05-2.16,6.94-6.67,5.77-8.55-1.31-2.11-4.88-1.86-7.46-2.02-3.71-.02-7.49-.07-11.2-.52-7.05-.56-16.4-4.23-21.93-1.73-5.45,2.58-7.26,8.35-3.96,12.76,10.79,16.09,43.82,72.24,55.19,86.95,2.94,1.15,11.68-7.11,15.53-10.11,9.64-8.12,56.48-52.11,53.27-62.57l-.02-.14ZM916.02,801.14c-2.75.43-5.19,2.24-7.58,3.74-8.81,5.82-18.25,10.17-28.13,13.44-3.55,1.18-7.15,2.23-10.77,3.16-3.5,1.14-10.27,1.6-9.86,4.58,4.05,8.19,59.6,2.29,69.33.17,4.81-.89,8.54-2.85,5.47-8.24-1.91-3.55-5.72-8.23-9.14-11.8-2.54-2.8-6.28-5.67-9.18-5.06l-.15.02ZM1065.73,486.01c-.49-8.84-76.18,25.24-84.74,33.38-2.09,1.58-5.24,4.47-.11,3.86,15.84-2.73,84.07-20.15,84.86-37.15v-.09ZM887.11,382.17c9.62-7.8,18.79-16.22,28.83-23.5,13.58-9.45,6.44-14.7-6.9-15.81-20.86-1.75-23.49,9.94-29.61,27.36-1.41,4.37-2.8,9.31-3.76,13.56-.44,2.46-1.04,3.91-.29,5.26,1.98,1.38,7.9-4.22,11.56-6.74l.17-.13ZM1101.13,469.56c3.24-4.99-5.99-18.38-9.54-22.51-1.59-1.6-2.67-3.39-4.49-3.09-1.37.79-1.7,2.98-2.22,4.54-1.45,5.62-3.82,14.56-5.18,20.35-1.51,5.43,3.05,4.2,7.3,3.88,4.2-.69,11.23-.4,14.05-3.08l.08-.1ZM954.96,649.43c1.55-1.03,2.47-3.45,3.58-6.86.83-2.58,1.81-5.71,2.68-8.48.45-2.13,3.61-8.98.84-8.28-.92.21-1.98.73-2.99,1.21-6.85,3.56-19.09,8.99-26.32,13.27-3.92,2.79,4.57,5.5,7.26,6.78,4.31,1.48,11.18,4.37,14.84,2.43l.11-.07Z"/>
  <path class="cls-3" d="M487.41,983.73c4.84.1,15.2,4.9,15.29,10.07.11,6.02-16.92,31.25-21.87,36.45-9.18,9.67-41.15,34.19-46,9.68-5.48-27.65,25.82-56.77,52.58-56.2Z"/>
  <path class="cls-3" d="M574.78,901.14c28.13-5.9,27.31,6.55,16.95,26.62-5.84,11.3-38.65,51.32-48.44,30.43-8.97-19.13,11.96-52.95,31.49-57.05Z"/>
  <path class="cls-3" d="M591.84,988.47c.43.17,6.27,6.28,6.48,6.7,10.5,20.61-30.53,66.41-47.29,54.65-13.94-9.77,16.47-71.16,40.81-61.35Z"/>
  <path class="cls-3" d="M509.36,908.35c27.18-3.93,9.52,29.77-.88,40.45-4.45,4.57-21.29,16.92-27.6,13.74-19.08-9.62,11.36-51.71,28.48-54.19Z"/>
  <path class="cls-3" d="M516.37,1054.86c-23.88,21.38-33.99-13.44-11.05-26.78,21.73-12.65,25.51,13.84,11.05,26.78Z"/>
  <path class="cls-3" d="M412.92,1038.77c5.85,22.51-7.71,41.17-31.5,41.21-3.71-18.59,13.97-38.02,31.5-41.21Z"/>
  <path class="cls-3" d="M778.83,300.5l-.02-.2c-2.97-55.74-48.43-69.67-92.22-41.35-32.4,21.46-57.44,51.56-66.56,88.87-3.94,14.92-6.89,30.79-3.14,46.15,1.79,8.43,5.36,16.32,9.07,24.02,1.09,2.27,2.22,4.71,1.85,7.2-.23,1.56-1.02,2.98-1.8,4.35-1.59,2.8-3.19,5.61-4.78,8.41-.44.77-.94,1.6-1.76,1.92-.63.25-1.33.15-2,.05-10.94-1.6-17.07,1.82-27.74,3.85-13.88,2.53-27.34,8.39-39.43,15.81-14.95,8.67-24.94,20.14-37.98,29.93-13.4,8.78-33.48,13.18-49.07,6.43-19.13-8.81-34.94-27.74-41.59-48.11-1.72-7.48,1.46-14.3,2.46-21.58,1.33-9.42-.83-22.79-2.44-33.42-2.14-14.42-6.62-28.3-10.58-42.57-1.59-7.29-5.48-16.37-3.38-23.21,2.12-4.21,6.27-6.39,10.82-6.92,3.5-.41,10.94-.46,13.59,1.93,3.34,3.01,7.25,5.13,11.52,6.39,6.4,1.88,12.8,5.28,19.54,4.26,5.32-.8,11.56-2.96,15.48-6.8,7.57-6.45,10.98-16.24,14.78-25.21,6.82-15.16,8.68-31.68,12.67-47.6,7.76-25.11,16.75-37.43-14.16-50.04-20.75-6.2-44.51,13.6-56.07,29.5-7.94,9.91-10.01,26.54-22.57,32.31-5.55,2.53-12.72,4.96-18.22,4.77-9.76-.11-13.45-10.35-18.27-17.24-4.35-6.53-9.38-12.58-15-17.78-6.76-6.26-13.81-11.86-21.72-15.18-29.65-9.62-69.37-9.35-99.3-9.59-9.94-.05-19.4,2.02-29.25,3.79-8.97,1.69-18.44,1.92-26.89,5.44-12.03,4.89-21.66,14.05-34.43,17.45-49.06,9.86-100.37,19.53-112.81,75.71-13.66,48.3,1.6,92.58,20.94,135.87,30.15,71.96,52.37,146.23,70.58,222.12,4.88,22.43,7.07,47.6,16.79,68.71,3,6.45,6.79,12.51,11.61,17.75,4.45,4.95,10.44,8.85,14.05,13.37,4.55,5.18,5.13,12.24,5.08,18.91.08,14.39,2.65,31.61,6.03,45.91,3,15.04,10.49,16.42,25.09,12.23,6.7-1.5,14.59-3.46,17.3-10.57,2.64-5.74,2.16-12.74,4.96-16.62,1.46-1.81,3.36-1.56,5.88-.16,8.94,6.28,18.27,11.29,30.17,8.78,35.24-8.71,70.07-20.19,104.73-30.25,18.62-5.17,16.35-22.11,3.65-32.74-4.39-3.71-9.82-6.5-15.6-8.4-11.11-3.72-23.31-4.02-31.09-13.3-5.18-6.4-9.79-14.7-10.31-22.97-.25-6.55,3.15-11.74,4.19-19.16.92-7.34-1.02-15.88-5.12-22.11-15.68-43.5-50.52-103.69-65.23-146.05-12.48-35.86-30.5-84.82-38.04-121.3-.91-5.74-3.58-16.34-1.1-20.27,4.02-3.94,12.42-2.08,18-2.39,22.92.1,49.91-3.75,67.4,14.51,13.33,13.2,15.32,35.63,23,51.66,3.22,6.7,9.59,9.37,15.15,13.56,13.06,10.8,25.15,62.9,33.14,76.51.15.26.31.5.47.73,1.13,2.89,2.48,5.66,3.72,7.74,32.82,57.47,145.77,69.24,176.44,3.54,4.26-8.27,8.18-16.56,15.98-21.76,2.82-1.77,9.81-6.45,11.48-2.7.77,3.48-.97,9,.87,12.64,3.28,7.32,14.52,5.17,19.07-.54,10.94-13.73,9.08-19.57,26.63-29.49,16.54-11.59,24.09-19.31,18.01-39.4-3.08-10.77-4.24-25.21,2.83-34.71,4.09-5.34,10.86-6.48,17.31-6.4,64.5-1.41,121.43-71.37,117.35-134.97ZM276.15,711.37c-2.41,11.92-15.74,18.25-26.15,22.78-7.35,3.29-14.24,6.87-20.99,9.95-8.55,3.85-17.21,7.37-25.72,11.36-7,3.13-14.51,6.17-22.2,6.03-39.07-.42-42.09-80.43-50.38-110.57-11.23-43.45-22.88-87.68-38.81-129.6-19.86-50.87-51.09-114.94-54.61-161.63-.92-13.35.59-27.37,3.29-40.69,5.67-28.95,22.8-47.73,51.14-58.83,11.02-4.62,22.07-7.63,34.53-10.15,4.61-.61,16.45-4.26,19.07-.11,1.37,2.2.6,6.75.56,12.28-.02,5.57.66,11.23,2.21,16.58,1.19,4.02,2.92,7.56,4.86,10.81,4.42,7.08,9.24,13.45,11.87,21.3,16.76,43.08,7.72,96.55,21.76,141.47l.07.18c2.04,5.66,3.52,16.61,5.5,22.35,18.26,57.24,41.47,107.7,62.74,163.85,6.89,16.82,15.58,36.67,19.8,54.06,1.65,7.14,2.6,13.15,1.46,18.57ZM312.92,681.48c1.07,4.76,3.35,11.38,3.42,12.96.99,4.5.31,9.51-3.97,11.92-5.59,3.27-13.91,4.62-20.9,4.41-6.24-.34-9.31-4.84-10.79-10.94-24.68-103-90-194.78-99.65-301.15-.03-6.59.04-11.37,3.61-14.09,4.27-3.03,13.96-.96,18.12,4.01,4.51,4.82,4.65,10.88,5.47,17.9,11.05,93.09,66.57,193.49,104.7,274.97ZM392.89,282.76c2.97-8.32,22.28-6.6,29.67-14.81,7.71-6.86,9.32-20.19,16.19-26.56,4.57-2.29,8.6,5.45,12.21,7.72,27.15,23.17,49.14.65,46.68,18.58-3.28,15.15-10.4,35.17-17.5,46.89-3.27,6.51-9.84,8.75-16.42,10.46-9.48,2.47-31.41-3.11-32.51-14.54-.28-2.88-.55-5.76-.83-8.64-1.67.05-2.99,1.34-4.24,2.44-12.42,10.86-24.47,9.06-30.06-6.53-1.68-4.7-4.35-10.17-3.19-15.02ZM607.68,519.27c.12.11.34.35.52.55-.16-.17-.41-.44-.52-.55ZM628.04,502.92c-12.25,10.45-22.49,14.14-38.48,15.15-16.05,1.51-29.22,11.29-37.39,25.02-5.81,8.72-12.47,19.59-19.14,27.61-38.67,40.48-116,26.18-150.43-13.65-3.48-4.07-6.63-8.55-9.1-13.2-.14-.2-.36-.59-.63-1.08-.55-3.83-1.88-7.56-3.55-12.29-16.13-42.39-18.23-60.99,16.25-74.4,13.62-4.7,25.67-11.23,34.63,4.87,8.22,12.79,16.19,27.17,28.97,36.01,6.9,4.4,14.76,5.71,22.52,7.5,8.7,1.85,17.87,3.6,26.54.71,22.61-7.68,39.33-31.15,61.02-42.19,16.44-8.1,44.49-19.76,62.2-14.01,10.56,4.76-1.57,11.63-1.34,17.45,1.3,2.82,5.68,3.4,6.9,6.25.91,2.44-.97,5.49-.67,8.06,1.21,4.94,9.72,3.51,11.79,7.42,1.75,5.52-6.04,10.95-10.09,14.76ZM752.44,347.29c-12.32,21.61-29.76,40.86-50.9,53.92l-.17.1c-13.74,7.74-31.73,15.11-47.81,10.57-7.6-2.34-15.4-6.67-20.67-12.88-10.35-12.64-10.13-29.45-6.12-44.66,2.38-10.66,5.67-21.04,10.77-30.64,18.08-34.72,58.38-73.68,97.03-70.88,15.99.88,26.06,11.33,30.1,26.67,5.86,23.07-.82,47.43-12.24,67.79Z"/>
  <path class="cls-3" d="M657.69,316.54c-12,9.4-17.28,31.05-14.9,46.73.52,2.86,1.54,7.27,4.09,8.43l.07.02c3.48.18,3.39-8.81,3.5-11.61.03-7.09.64-14.13,3.46-20.67,2.91-7.4,8.97-13.63,12.08-20.81,2.9-7.88-4.88-5.11-8.3-2.09Z"/>
  <path class="cls-3" d="M745.04,298.67l-.1.09c-4.24,4.43-2.57,14.46-4.18,20.54-.31,3.35-4.44,13.96,1.27,13.62,11.14-2.81,18.16-23.14,11.73-31.58-1.98-2.93-5.87-5.14-8.71-2.67Z"/>
</svg>