<svg xmlns="http://www.w3.org/2000/svg" viewBox="0 0 1662.6 593.8"><defs><style>.cls-1,.cls-6,.cls-9{fill:#fff}.cls-1,.cls-4{stroke:#1C2024}.cls-1,.cls-11,.cls-4,.cls-5,.cls-6,.cls-8,.cls-9{stroke-linecap:round;stroke-linejoin:round;stroke-width:6px}.cls-2{fill:#FDBDAF}.cls-3{fill:#E54D2E}.cls-11,.cls-4,.cls-5,.cls-8{fill:none}.cls-5,.cls-9{stroke:#E54D2E}.cls-6,.cls-8{stroke:#5C271F}.cls-7{fill:#5C271F}.cls-11{stroke:#fff}</style></defs><g id="Layer_2" data-name="Layer 2"><g id="solid"><g id="process"><g id="whiteboard"><path d="M1293.9 461.4V130.1h-41.2v334z" class="cls-1"/><path id="shape" d="M464.9 130.1h808.4v459.3H464.9z" class="cls-1"/><g id="post-its"><path d="M630.4 307.8h33.8v33.8h-33.8z" class="cls-2"/><path d="M630.4 341.6h33.8v33.8h-33.8z" class="cls-3"/><path d="M1156.2 243.8h33.8v33.8h-33.8z" class="cls-2"/><path d="M1156.2 277.7h33.8v33.8h-33.8z" class="cls-3"/><path d="M520.6 299.3h33.8v33.8h-33.8z" class="cls-2"/><path d="M520.6 333.1h33.8v33.8h-33.8z" class="cls-3"/><path d="M520.6 367h33.8v33.8h-33.8zM764.8 301.5h33.8v33.8h-33.8zM764.8 335.4h33.8v33.8h-33.8z" class="cls-2"/><path d="M764.8 369.2h33.8V403h-33.8zM1106 224.7h33.8v33.8H1106z" class="cls-3"/><path d="M1106 258.5h33.8v33.8H1106z" class="cls-2"/><path d="M1106 292.4h33.8v33.8H1106z" class="cls-3"/><path d="M987 343.2h33.8V377H987zM987 377h33.8v33.8H987zM987 410.9h33.8v33.8H987z" class="cls-2"/><path d="M987 444.7h33.8v33.8H987z" class="cls-3"/><path d="M1051.4 292.4h33.8v33.8h-33.8z" class="cls-2"/><path d="M1051.4 326.3h33.8v33.8h-33.8z" class="cls-3"/><path d="M1051.4 360.1h33.8v33.8h-33.8zM1051.4 394h33.8v33.8h-33.8zM722.3 275h33.8v33.8h-33.8z" class="cls-2"/><path d="M810.4 275h33.8v33.8h-33.8zM810.4 308.8h33.8v33.8h-33.8zM810.4 342.7h33.8v33.8h-33.8z" class="cls-3"/><path d="M810.4 376.5h33.8v33.8h-33.8z" class="cls-2"/><path d="M810.4 410.4h33.8v33.8h-33.8z" class="cls-3"/><path d="M810.4 444.2h33.8V478h-33.8zM938.9 335.8h33.8v33.8h-33.8zM938.9 538.8h33.8v33.8h-33.8z" class="cls-2"/><path d="M938.9 369.6h33.8v33.8h-33.8z" class="cls-3"/><path d="M938.9 403.4h33.8v33.8h-33.8z" class="cls-2"/><path d="M938.9 437.3h33.8v33.8h-33.8z" class="cls-3"/><path d="M938.9 471.1h33.8v33.8h-33.8z" class="cls-2"/><path d="M938.9 505h33.8v33.8h-33.8z" class="cls-3"/><path d="M575.5 285.4h33.8v33.8h-33.8z" class="cls-2"/><path d="M575.5 319.3h33.8v33.8h-33.8zM575.5 353.1h33.8v33.8h-33.8z" class="cls-3"/><path d="M575.5 386.7h33.8v33.8h-33.8zM667.8 466.6h33.8v33.8h-33.8z" class="cls-2"/><path d="M710.8 466.6h33.8v33.8h-33.8z" class="cls-3"/><path d="M1039 490.8h33.8v33.8H1039z" class="cls-2"/><path d="M1079.8 490.8h33.8v33.8h-33.8z" class="cls-3"/><path d="M1039 532h33.8v33.8H1039z" class="cls-2"/><path d="M721.2 508.3H755v33.8h-33.8zM679.1 508.3h33.8v33.8h-33.8z" class="cls-3"/><path d="M632.9 508.3h33.8v33.8h-33.8z" class="cls-2"/></g><g id="lines"><path d="M532.6 285.4v-34.6h121.9V295M593.5 274.6v-82.8M739.3 262.9v-25.2h91.6v25.2M785.1 285.8V190" class="cls-4"/><path d="M532.6 173.1h121.9M742.8 178.9h88.1M1051.4 163.1h88.1M670.9 447.7h90.6" class="cls-5"/><path d="M1161.3 367h75.1" class="cls-4"/><path d="M1056 471.7h40.7" class="cls-5"/><path d="M950.6 322.3v-27.7h50.3v37.2M975.8 224.1v-30h197.3v38.4M975.8 294.6v-28.1M1068.1 277.7v-83.6M1120.7 210.4v-16.3M1092 190.9v-16.3" class="cls-4"/><path d="M942.2 238.6h72M958.4 251.6H998" class="cls-5"/></g></g><g id="graphs"><g id="circle_graph" data-name="circle graph"><path d="M226.1 197.3h152.3v163.9H226.1z" class="cls-6"/><path d="M308 231.3a48 48 0 0 0-7.8.7l8.4 47.6-16.1 45.6a48.3 48.3 0 1 0 15.6-94" class="cls-7"/><path d="M250.2 281.4a48 48 0 0 0 32 45l16.3-45.6Z" class="cls-2"/><path d="M287.5 223.3a48 48 0 0 0-40 48l48.4-.4Z" class="cls-3"/><path d="M378.4 237.1H424v114.5h94.5" class="cls-8"/><circle cx="518.5" cy="351.6" r="8.5" class="cls-7"/></g><g id="graph"><path d="M1172.5 363.1h344.2v227.7h-344.2z" class="cls-6"/><path d="M1149.8 363.1H1494v227.7h-344.2z" class="cls-6"/><path d="M1456.5 527.1h-269.4a2.5 2.5 0 1 1 0-5h269.4a2.5 2.5 0 0 1 0 5M1456.5 495h-269.4a2.5 2.5 0 1 1 0-5h269.4a2.5 2.5 0 0 1 0 5M1456.5 462.8h-269.4a2.5 2.5 0 1 1 0-5h269.4a2.5 2.5 0 1 1 0 5M1456.5 430.6h-269.4a2.5 2.5 0 1 1 0-5h269.4a2.5 2.5 0 1 1 0 5" class="cls-7"/><path d="m1335.7 407.6 37.8-.4 1.5 147-37.8.4z" class="cls-7"/><path d="m1400 460.4 38-.4 1 94.2-38 .4zM1272.5 460.4l38-.4 1 94.2-38 .4zM1248.1 554.3l-37.7.4-.6-45.2 37.7-.4z" class="cls-3"/><path d="M1187.1 396.4v158.3h269.4" class="cls-5"/><g id="lines-2" data-name="lines"><path d="M1216 564h22.2M1280.9 564h22.2" class="cls-9"/><path d="M1344.6 564h22.2" class="cls-8"/><path d="M1408.4 564h22.2" class="cls-9"/><path d="M1176 433.6a2.5 2.5 0 0 1-2.5-2.5v-3.8a2.5 2.5 0 0 1 5 0v3.8a2.5 2.5 0 0 1-2.5 2.5M1176 464.7a2.5 2.5 0 0 1-2.5-2.5v-3.8a2.5 2.5 0 1 1 5 0v3.8a2.5 2.5 0 0 1-2.5 2.5M1176 498.8a2.5 2.5 0 0 1-2.5-2.5v-3.8a2.5 2.5 0 0 1 5 0v3.8a2.5 2.5 0 0 1-2.5 2.5M1176 531a2.5 2.5 0 0 1-2.5-2.5v-3.8a2.5 2.5 0 1 1 5 0v3.8a2.5 2.5 0 0 1-2.5 2.5" class="cls-7"/></g><path d="M1217.5 361.1v-99.7h-26.4" class="cls-8"/><circle cx="1191.1" cy="261.4" r="8.5" class="cls-7"/></g></g><g id="laptop"><path id="shape-2" d="m661.3 399.3-262.9 2.2a7.5 7.5 0 0 0-7.3 5.8l-46.4 156.8h-92s-5.3 27.6 25.9 27.6h340.1a7.6 7.6 0 0 0 7.4-5.8l42.5-177.4a7.5 7.5 0 0 0-7.3-9.2" class="cls-7" data-name="shape"/><path id="shape-3" d="m642.2 399.3-263 2.2a7.5 7.5 0 0 0-7.2 5.8l-46.4 156.8h-92s-5.3 27.6 25.9 27.6h340.1a7.5 7.5 0 0 0 7.3-5.8l42.6-177.4a7.5 7.5 0 0 0-7.3-9.2" class="cls-7" data-name="shape"/><path id="screen" d="m347 549 33.8-122.6a9.4 9.4 0 0 1 9-7.2l227-2.2a9.4 9.4 0 0 1 9.1 11.5l-29.1 125.1a9 9 0 0 1-9.1 7.2l-231.6-.2A9.4 9.4 0 0 1 347 549" style="fill:#fff"/><g id="screen_lines" data-name="screen lines"><path d="m591.9 438.2 6.1 9.4-9.7 6.5M579 452.7l-8-13M562.1 439l-9.2 7.1 5.7 8M549.1 539.5l-21.2.1M513.2 539.6h-43.3M455.6 539.6h-82.4M579.6 526.9h-13M552 526.9h-21.2M516.2 526.9l-144.5.1M582.5 514.3h-29.3M539.2 514.3h-39M460.6 514.3l-48.5.1M486.3 514.3h-13.8M585.5 501.6H545M532.7 501.6l-102.8.1M417.6 501.7h-40.1M564.4 489h-15.5M538.8 489l-95.6.1M588.4 489h-13.9M590.7 479.1h-73.6M505.8 479.1l-124.9.1M593.4 467.1l-40.4.1M539.4 467.2h-30M496.7 467.2h-17.1M466.8 467.2H430M417.3 467.2l-9.9.1" class="cls-5"/></g><path id="shape-4" d="m607 586 45.2-176.8a7.5 7.5 0 0 0-7.4-9.3" class="cls-11" data-name="shape"/></g><g id="paper_plane" data-name="paper plane"><path d="M962.6 33h6" class="cls-5"/><path d="M980.5 33.4c122 2.5 170.3-4.9 214.4 108 45.1 115.6 167.2 125.7 225.2 72.4a68.7 68.7 0 1 0-110.3-72.4s-52 164 164 185.5" style="stroke-linecap:round;stroke-linejoin:round;stroke-width:6px;fill:none;stroke:#E54D2E;stroke-dasharray:11.88 11.88"/><path d="m1479.7 327.4 6 .5" class="cls-5"/><path d="m929.3 76.2-66.5-63.5L977.3 0 961 24.4l6.2 26.6-17.9-7.1z" class="cls-3"/><path d="m871.6 15.8 85.9 6.3M945.5 43.6l-73.9-27.8" class="cls-11"/></g><path id="line" d="M3 590.8h1656.6" class="cls-1"/></g></g></g></svg>