<svg fill="#E54D2E" xmlns="http://www.w3.org/2000/svg" data-name="Abstract Shape" viewBox="0 0 1500 1500"><path d="m1214 936-8-6-6-3-7-4-8-5-9-4-10-5-12-6-12-5-13-6-14-6-12-6-13-5-16-7-15-6-16-7-15-6-15-5-15-6-14-5-13-5-13-5-12-4-11-3-10-4-9-2q-5-1-8-3-4-2-7-1-4 0-4-1l-4-1h-4l-5 3-1 6 3 4 3 2 5 3 6 4 7 4 8 4 9 5 10 5 12 5 12 6 13 6 14 6 12 5 13 5q8 3 16 7l15 7 16 6 15 6 15 6 15 5 14 6 13 5 13 4 12 4 11 4 10 3 9 3 8 2 6 2 5 1h8l5-3 1-6zm-20-1a420 420 0 0 1-62-20l-13-5-14-5-14-5-15-6-15-6-16-7-16-6-15-7-13-5-12-5-14-7-13-5-12-6-11-5-10-5-24-13h-1l10 2a733 733 0 0 1 81 28l14 6 15 6 15 6 16 6 16 6q8 3 15 7l13 6 12 5 14 6 13 6 12 5 11 6 11 5 9 4 8 5 6 3 1 1zM1108 1094l-3-6-4-6-5-8-5-8-7-8q-3-5-8-9-6-7-8-10l-9-11-10-11-10-11-10-10-9-10-12-12-92-84-9-7-9-7-9-6-7-5-7-4-6-4-5-2-4-1-5 1-5 3-1 5 1 5 1 5 3 5 4 7 5 7 6 8 6 8 8 10 8 10 9 10 10 11 11 12 9 9 10 11 12 12a1813 1813 0 0 0 101 91l9 6 8 6 8 6 6 4 7 3 4 2 4 1h5l5-3 1-5v-5zm-10 7-9-4-30-21-10-8-10-8-10-9-11-10-12-10-11-10-12-12-12-11-12-12-12-12-10-10-9-10q-6-5-10-12-7-9-10-10c-3-1-7-8-9-11l-8-10-8-9-6-8-6-8-4-7-4-6-2-5-2-3h2l4 2 5 2 6 4 8 5 8 6 9 7 9 7 10 8 11 9 11 10 11 10 12 11 11 11 12 12 12 12 12 12 10 10 9 10 11 11 9 11 9 10 9 10 7 9 7 8 5 8 5 7 3 6 3 5 1 4zM951 1186l-2-9-2-11-3-11-3-12-4-13-4-14-5-14-5-15-5-13-5-13-7-16-7-16-6-15-7-15-7-14-7-14-7-12-6-12-7-11-6-10-6-9-5-8-6-7-5-5-5-5-4-2-4-2h-5l-5 3-3 5-1 5v7l2 25a347 347 0 0 0 22 75l5 15 5 12 5 14 27 61 7 15 38 68 17 20 5 4 4 3 4 1 2 1 3-1 5-3 2-4 2-6v-13zm-9 21-1 3-1 1h-2l-2-2-9-8-16-23a516 516 0 0 1-52-102 1338 1338 0 0 1-42-112l-3-12-3-11-2-10-1-9-1-8v-11l1-4v-1h2l3 2 4 4 4 5 5 6 6 8 6 8 6 10 6 11 6 11 7 13 7 13a746 746 0 0 1 43 101l26 89 3 23zM785 1054a1082 1082 0 0 0-11-112l-10-32-4-5-3-3-4-2h-6l-5 3-3 4-4 5-2 7-3 8-2 9-3 10-2 11-2 12-1 13-2 14-1 15-1 16-1 16v45a895 895 0 0 0 13 139l8 22 4 5 3 4 4 2h6l5-3 3-4 4-6 2-6 3-8 2-9 3-10 2-11 2-13 1-13 2-14 1-15 1-15 1-16v-63m-10 34a717 717 0 0 1-19 155l-3 4-2 2-1 1h-1l-1-2-3-3-2-6-3-6-2-8-2-10-2-10-2-12-2-12-1-14-2-14-1-15v-16l-1-17v-34a687 687 0 0 1 19-154l3-4 2-3h2l2 2 2 3 2 5 3 7 2 8 2 9 2 11 2 11 2 13 1 14 2 14 1 15 1 16v50M703 899l-2-5-2-4-4-2h-6l-5 2-5 4-5 4-5 6q-3 3-5 7l-6 9-6 9-6 10-7 12-6 12q-3 6-7 13l-7 13-7 15-7 15-5 13-6 13-6 16q-3 8-7 16-5 11-5 15-1 8-6 15c-5 7-3 10-4 14l-4 13-4 13-3 12-3 11-2 10-1 9-1 8v7l1 6 1 5 3 4 4 2 3 1 2-1 5-2 5-3 5-5 5-6 6-7 6-8 6-10 6-10 6-11 7-12 7-13 7-14 6-14 7-15 6-13 5-13 7-16 6-16 6-16 5-14 5-14a613 613 0 0 0 17-77v-13m-10 13a152 152 0 0 1-6 36l-3 12-4 12-4 13-4 14-6 15-5 15-6 16q-3 8-7 16l-5 13-6 12-7 15-6 15q-3 6-7 13l-7 13-6 12-7 11-6 10-6 9-5 8-5 7-5 5-4 4-4 2-2 1h-1v-3l-1-4 2-22a319 319 0 0 1 15-58 1034 1034 0 0 1 91-199l20-24 3-2 2-1h1l1 3v11M560 981l12-13 11-11q6-5 10-12c4-7 7-7 10-10l9-11 8-9 7-9 6-9 6-8 4-7 4-6 2-5 2-5v-5l-2-4-4-2-5-1-5 2-6 2-6 4-7 4-8 6-9 6-9 7-10 8-10 9-11 9-11 10-12 10-11 11-12 12-10 9-11 11-71 78-7 9-6 8-6 8-4 7-4 6-3 6-1 4v5l2 4 4 3h5l5-2 5-2 7-4 7-4 8-5q5-3 8-7 5-5 10-7 7-3 9-8 5-6 11-8 7-4 10-9 6-7 12-10 8-5 11-11 6-8 12-11 8-5 12-11 7-8 10-10l10-10zm-19 5-10 10-10 9-12 12-11 11-12 10-11 10-11 9-10 9-10 7-9 7-8 6-7 6-7 4-6 3-5 2-2 1 3-7 13-20 6-8 7-9 8-10 9-10 9-10 10-12 11-11 12-12 12-12 10-10 10-10 12-11 11-11 12-11 11-10 11-9 10-8 9-8 9-7 9-6 7-5 7-4 6-4 4-2h3l-1 2-2 5-3 5-5 7-5 7-6 8-7 9-8 10-9 10-9 11-10 11-11 12-12 12zM418 907l43-17 13-6 16-6 15-7 15-6 14-6 12-6 12-6 11-5 10-5 33-19 3-2 2-4-2-6-4-2h-4l-5 1-6 1-7 2-8 3-10 2q-5 1-10 4-7 3-11 4l-12 4-13 4-14 5-14 6-15 5-15 6-15 7-13 5-13 5-16 7-15 6-15 7-14 6-12 6-12 5-11 5-10 5-9 5-8 4-6 4-6 3-4 3-3 3-2 4 2 5 4 2h4l5-1 6-1 7-2 8-2 10-3 10-3 11-4 12-4 13-5 14-5 14-5zm-33 2-13 5-13 4-12 4-11 4-27 7 8-4 8-5q4-3 10-4 8-2 11-6 5-5 12-5 9-1 13-6c4-5 9-4 13-6l15-6q8-3 15-7 10-5 15-6 8-3 14-6l13-5 15-6 15-6 14-6 15-5 13-5 13-5 12-4 11-4 27-6-8 4-8 4-10 5-11 5-12 6-13 5q-6 3-13 7-10 5-15 6l-15 6-15 7-14 5-13 6-15 6-15 6-15 5zM250 745h351v10H250zM285 563l3 3 24 14 9 5 10 5 11 5 12 5 12 6 14 6 15 7 15 6 16 7 13 5 13 5 15 7 15 6 15 5 14 6 14 5 12 4 13 4 11 4 46 13h4l4-2 2-6-2-4-3-2-24-14a684 684 0 0 0-68-33l-15-6-15-7-16-6-13-6-13-5-15-6-15-6-15-6-14-5-14-5-12-5q-6-3-13-4c-7-1-8-3-11-4l-46-12h-4l-4 2-2 5zm23 2 8 3 10 2q5 1 10 4 7 3 11 4l12 4 13 4 13 5 15 6 14 5 15 6 15 6 13 6 14 5 71 31 12 6 11 5 10 5 8 4 8 4 5 3-43-13-12-4-13-5-13-5-14-5-15-6-15-6-15-6-13-5-14-6-15-6-15-7-15-6-13-6-13-6-12-5-11-6-10-4-8-5-8-4-5-3zM391 405l3 5 4 6 4 7 6 8 6 8 7 9 8 10 9 10 9 11 11 11 11 12 11 12 12 12 88 81 49 35 6 2 5 2h2l3-1 4-2 2-4v-5l-2-5-2-5-4-6-4-7-6-8-6-9-7-9-8-9-9-11-10-10-10-12-11-12-12-12-12-12-32-31-12-11-11-11-11-10-11-9-11-8-9-8-10-7q-5-3-8-7-5-5-8-5-4-1-7-4-4-3-7-4l-5-2-5-2h-5l-4 2-2 5v5zm11-6 5 2 6 3 6 4 8 6 8 6 9 7 10 7 10 9 11 9 11 10 11 10 12 11 12 12 10 9 10 10 12 12 12 12 11 12 10 11 9 11 9 10 8 10 7 9 6 8 5 7 5 7 3 5 2 5 1 2h-3l-4-2-6-3-7-5-7-5-9-6-9-7-9-8-11-8-10-9-11-10-12-11-11-11-12-11-10-10-10-10-12-12-12-12-11-11-10-12-10-10-8-10-8-10-7-9-6-8-6-8-4-6-3-6-3-7zM703 580l-2-9-2-10-2-11-3-12-4-13-4-13-5-15-5-14-6-16-6-15-6-16-6-14-6-13-7-15-6-14-7-14-26-46-6-10-6-8-6-7-5-6-5-5-5-3-5-2h-5l-4 2-3 4-1 5-1 6 2 24 2 10 3 11 3 12 4 13 4 13 4 14 6 15 5 15 7 16 6 16 6 13c2 2 3 9 5 13l7 15 7 15 7 13 7 13 6 12 7 12 6 10 6 9 6 9 5 7 5 6 5 4 5 4 5 2h6l4-2 2-4 2-5v-21m-10 14v5l-1 3h-1l-2-1-3-2-9-10a201 201 0 0 1-23-33 701 701 0 0 1-63-136l-16-44-4-13-3-13q-1-6-3-11l-3-11-2-10-1-8-1-8v-6l1-4v-3h3l4 3 4 4 5 5 5 7 5 8 6 9 6 10 7 11 6 12 7 13 7 13 6 15 7 15 6 12 5 13 7 16 6 16 5 15 6 15 4 14 4 13 4 12 3 12 2 11 2 9 2 9v13M785 397l-5-74-1-13-2-13-2-11-3-10-2-9-3-8-2-6-4-6-3-4-5-3h-6l-4 2-3 4-4 5-2 6-3 7-3 9-2 10-2 11-2 11-2 13-1 14-2 15-1 15v16l-1 16v35a707 707 0 0 0 5 89l1 13 2 12 2 11 3 10 2 9 3 8 3 7 3 5 3 4 5 3h6l4-2 3-3 4-5 3-6 2-8 3-8 2-10 2-11 2-12 2-13 1-14 2-14 1-16 1-16v-65m-10 32a782 782 0 0 1-15 144l-3 7-2 5-2 3-2 2h-2l-2-3-3-4-7-21a347 347 0 0 1-10-74l-2-59v-17a958 958 0 0 1 11-127l9-30 2-3 2-2h1l1 1 2 2 3 4 2 6 2 7 3 8 2 10 2 11 2 12 1 13 2 14 1 14 1 16 1 16v45M798 604l3 5 7 3h3l4-2 4-2 5-5 16-20a426 426 0 0 0 46-82l7-15 6-15 7-16 7-16 15-41 5-14 4-14 4-13 3-12 3-11 2-11 2-9 1-9v-13l-1-6-3-4-5-3h-5l-4 1-4 3-5 4-17 20-18 30-7 12-6 13q-3 7-7 13-5 9-7 15l-7 14-7 16-6 15-7 16-5 14-5 12-5 15-5 15-5 14q-2 7-3 13l-4 12-2 11-3 10-1 10-1 8v14zm9-18 4-27 14-49 5-14 5-15 5-13 5-13q3-8 7-16l6-15 7-15 7-15 7-14 38-67 19-22 2-2h2l1 1 1 3v5l-3 23a335 335 0 0 1-16 60l-5 14-5 15-5 12-5 14a1337 1337 0 0 1-59 123l-6 10-6 8-5 8-5 6-5 5-4 4-3 2h-2v-1l-1-4v-11M940 519l-40 43-9 10-8 10-8 10-6 8-6 8-5 7-4 7-3 5-1 5-1 5 1 5 5 3 3 1h2l4-1 11-6 32-22 9-7 11-9 10-9 11-9 12-11 11-10 12-12 12-11 13-13a1396 1396 0 0 0 88-100l12-20 2-5v-5l-1-5-5-3h-5l-4 1-11 5a180 180 0 0 0-31 22l-10 8-10 8-11 9-11 10-11 10-12 11-12 11-12 12-12 12zm19-5 70-65 10-9 10-8 10-8 9-7 8-5 7-5 6-4 6-3 3-1 2-1-1 4-3 5-3 6-5 7-6 7-6 9-7 9-9 10-9 10-9 11-11 11-9 10-10 10-12 12-12 12-12 12-11 11-12 11-11 10-11 10-11 9-10 8-9 7-9 7-8 6-8 5-6 4-5 2-4 2h-2l2-4 2-4 4-6 4-7 6-8 6-8 8-10 8-9q4-5 9-11l10-11 10-11 9-10 10-10zM1087 591l-15 6-15 6-16 6q-8 3-15 7l-16 7-13 5-12 5-14 6-13 6-12 6-12 5-10 5-9 5-8 4-7 4-6 4-5 3-3 2-3 3a6 6 0 0 0 1 7l5 3h4l4-1 4-1 7-1 8-3 9-2 10-4 11-3 52-19 15-6 15-5 15-7 16-6 15-6 16-7 13-5 12-6 14-6 13-6 13-6 11-5 10-5 9-5 8-4 7-4 6-3 5-3 3-3 3-3-1-6-5-3h-4l-8 1-34 10-49 17-14 6zm32-1 75-25 2-1-1 1-6 3-8 5-9 4-11 5-11 6-12 5-13 6-14 6-12 6-13 5-15 7-16 6-16 6-15 6-15 6-14 6-14 5-13 5-13 4-12 4-11 4-26 8-2 1 1-1 7-4 7-4 10-5 10-5 11-5 12-6 13-5 14-7 12-5 13-5 15-7 16-6 16-7 15-6 15-6 14-5zM900 745h350v10H900z"/></svg>